  0
SECTION
  2
HEADER
  9
$ACADVER
  1
AC1014
  9
$HANDSEED
  5
FFFF
  9
$MEASUREMENT
 70
     1
  0
ENDSEC
  0
SECTION
  2
TABLES
  0
TABLE
  2
VPORT
  5
8
330
0
100
AcDbSymbolTable
 70
     4
  0
VPORT
  5
2E
330
8
100
AcDbSymbolTableRecord
100
AcDbViewportTableRecord
  2
*ACTIVE
 70
     0
 10
0.0
 20
0.0
 11
1.0
 21
1.0
 12
210.0
 22
148.5
 13
0.0
 23
0.0
 14
10.0
 24
10.0
 15
10.0
 25
10.0
 16
0.0
 26
0.0
 36
1.0
 17
0.0
 27
0.0
 37
0.0
 40
341.0
 41
1.24
 42
50.0
 43
0.0
 44
0.0
 50
0.0
 51
0.0
 71
     0
 72
   100
 73
     1
 74
     3
 75
     0
 76
     0
 77
     0
 78
     0
  0
ENDTAB
  0
TABLE
  2
LTYPE
  5
5
330
0
100
AcDbSymbolTable
 70
     1
  0
LTYPE
  5
14
330
5
100
AcDbSymbolTableRecord
100
AcDbLinetypeTableRecord
  2
BYBLOCK
 70
     0
  3

 72
    65
 73
     0
 40
0.0
  0
LTYPE
  5
15
330
5
100
AcDbSymbolTableRecord
100
AcDbLinetypeTableRecord
  2
BYLAYER
 70
     0
  3

 72
    65
 73
     0
 40
0.0
  0
LTYPE
  5
16
330
5
100
AcDbSymbolTableRecord
100
AcDbLinetypeTableRecord
  2
CONTINUOUS
 70
     0
  3
Solid line
 72
    65
 73
     0
 40
0.0
  0
ENDTAB
  0
TABLE
  2
LAYER
  5
2
100
AcDbSymbolTable
 70
5
  0
LAYER
  5
50
100
AcDbSymbolTableRecord
100
AcDbLayerTableRecord
  2
0
 70
0
  6
CONTINUOUS
  0
LAYER
  5
51
100
AcDbSymbolTableRecord
100
AcDbLayerTableRecord
  2
Layer_1
 70
0
  6
CONTINUOUS
  0
LAYER
  5
52
100
AcDbSymbolTableRecord
100
AcDbLayerTableRecord
  2
capa1
 70
0
  6
CONTINUOUS
  0
LAYER
  5
53
100
AcDbSymbolTableRecord
100
AcDbLayerTableRecord
  2
capa2
 70
0
  6
CONTINUOUS
  0
LAYER
  5
54
100
AcDbSymbolTableRecord
100
AcDbLayerTableRecord
  2
capa3
 70
0
  6
CONTINUOUS
  0
ENDTAB
  0
TABLE
  2
STYLE
  5
3
330
0
100
AcDbSymbolTable
 70
     1
  0
STYLE
  5
11
330
3
100
AcDbSymbolTableRecord
100
AcDbTextStyleTableRecord
  2
STANDARD
 70
     0
 40
0.0
 41
1.0
 50
0.0
 71
     0
 42
2.5
  3
txt
  4

  0
ENDTAB
  0
TABLE
  2
VIEW
  5
6
330
0
100
AcDbSymbolTable
 70
     0
  0
ENDTAB
  0
TABLE
  2
UCS
  5
7
330
0
100
AcDbSymbolTable
 70
     0
  0
ENDTAB
  0
TABLE
  2
APPID
  5
9
330
0
100
AcDbSymbolTable
 70
     2
  0
APPID
  5
12
330
9
100
AcDbSymbolTableRecord
100
AcDbRegAppTableRecord
  2
ACAD
 70
     0
  0
ENDTAB
  0
TABLE
  2
DIMSTYLE
  5
A
330
0
100
AcDbSymbolTable
 70
     1
  0
DIMSTYLE
105
27
330
A
100
AcDbSymbolTableRecord
100
AcDbDimStyleTableRecord
  2
ISO-25
 70
     0
  3

  4

  5

  6

  7

 40
1.0
 41
2.5
 42
0.625
 43
3.75
 44
1.25
 45
0.0
 46
0.0
 47
0.0
 48
0.0
140
2.5
141
2.5
142
0.0
143
0.03937007874016
144
1.0
145
0.0
146
1.0
147
0.625
 71
     0
 72
     0
 73
     0
 74
     0
 75
     0
 76
     0
 77
     1
 78
     8
170
     0
171
     3
172
     1
173
     0
174
     0
175
     0
176
     0
177
     0
178
     0
270
     2
271
     2
272
     2
273
     2
274
     3
340
11
275
     0
280
     0
281
     0
282
     0
283
     0
284
     8
285
     0
286
     0
287
     3
288
     0
  0
ENDTAB
  0
TABLE
  2
BLOCK_RECORD
  5
1
330
0
100
AcDbSymbolTable
 70
     1
  0
BLOCK_RECORD
  5
1F
330
1
100
AcDbSymbolTableRecord
100
AcDbBlockTableRecord
  2
*MODEL_SPACE
  0
BLOCK_RECORD
  5
1B
330
1
100
AcDbSymbolTableRecord
100
AcDbBlockTableRecord
  2
*PAPER_SPACE
  0
ENDTAB
  0
ENDSEC
  0
SECTION
  2
BLOCKS
  0
BLOCK
  5
20
330
1F
100
AcDbEntity
  8
0
100
AcDbBlockBegin
  2
*MODEL_SPACE
 70
     0
 10
0.0
 20
0.0
 30
0.0
  3
*MODEL_SPACE
  1

  0
ENDBLK
  5
21
330
1F
100
AcDbEntity
  8
0
100
AcDbBlockEnd
  0
BLOCK
  5
1C
330
1B
100
AcDbEntity
 67
     1
  8
0
100
AcDbBlockBegin
  2
*PAPER_SPACE
  1

  0
ENDBLK
  5
1D
330
1B
100
AcDbEntity
 67
     1
  8
0
100
AcDbBlockEnd
  0
ENDSEC
  0
SECTION
  2
ENTITIES
  0
LWPOLYLINE
  5
100
100
AcDbEntity
  8
capa1
 62
7
100
AcDbPolyline
 90
9
 70
1
 10
6.785083
 20
91.399051
 30
0.0
 10
190.381430
 20
90.999929
 30
0.0
 10
189.184063
 20
222.311229
 30
0.0
 10
128.916565
 20
221.912108
 30
0.0
 10
128.517444
 20
224.306843
 30
0.0
 10
66.653455
 20
223.109475
 30
0.0
 10
66.653455
 20
219.916495
 30
0.0
 10
5.188592
 20
219.916495
 30
0.0
 10
6.785083
 20
91.399051
 30
0.0
  0
LWPOLYLINE
  5
101
100
AcDbEntity
  8
capa2
 62
7
100
AcDbPolyline
 90
5
 70
1
 10
11.964585
 20
215.535232
 30
0.0
 10
20.763459
 20
215.535232
 30
0.0
 10
20.763459
 20
196.359174
 30
0.0
 10
11.964585
 20
196.359174
 30
0.0
 10
11.964585
 20
215.535232
 30
0.0
  0
LWPOLYLINE
  5
102
100
AcDbEntity
  8
capa2
 62
7
100
AcDbPolyline
 90
5
 70
1
 10
11.565092
 20
190.790004
 30
0.0
 10
19.965585
 20
190.790004
 30
0.0
 10
19.965585
 20
173.209695
 30
0.0
 10
11.565092
 20
173.209695
 30
0.0
 10
11.565092
 20
190.790004
 30
0.0
  0
LWPOLYLINE
  5
103
100
AcDbEntity
  8
capa2
 62
7
100
AcDbPolyline
 90
5
 70
1
 10
11.574552
 20
163.241102
 30
0.0
 10
20.355247
 20
163.241102
 30
0.0
 10
20.355247
 20
144.083223
 30
0.0
 10
11.574552
 20
144.083223
 30
0.0
 10
11.574552
 20
163.241102
 30
0.0
  0
LWPOLYLINE
  5
104
100
AcDbEntity
  8
capa2
 62
7
100
AcDbPolyline
 90
5
 70
1
 10
10.776307
 20
136.100776
 30
0.0
 10
18.758757
 20
136.100776
 30
0.0
 10
18.758757
 20
115.346406
 30
0.0
 10
10.776307
 20
115.346406
 30
0.0
 10
10.776307
 20
136.100776
 30
0.0
  0
LWPOLYLINE
  5
105
100
AcDbEntity
  8
capa2
 62
7
100
AcDbPolyline
 90
5
 70
1
 10
22.749983
 20
110.956057
 30
0.0
 10
33.925413
 20
110.956057
 30
0.0
 10
33.925413
 20
92.197300
 30
0.0
 10
22.749983
 20
92.197300
 30
0.0
 10
22.749983
 20
110.956057
 30
0.0
  0
LWPOLYLINE
  5
106
100
AcDbEntity
  8
capa2
 62
7
100
AcDbPolyline
 90
5
 70
1
 10
36.719270
 20
111.355173
 30
0.0
 10
44.302598
 20
111.355173
 30
0.0
 10
44.302598
 20
91.798172
 30
0.0
 10
36.719270
 20
91.798172
 30
0.0
 10
36.719270
 20
111.355173
 30
0.0
  0
LWPOLYLINE
  5
107
100
AcDbEntity
  8
capa2
 62
7
100
AcDbPolyline
 90
5
 70
1
 10
24.346473
 20
138.495497
 30
0.0
 10
32.728045
 20
138.495497
 30
0.0
 10
32.728045
 20
116.942882
 30
0.0
 10
24.346473
 20
116.942882
 30
0.0
 10
24.346473
 20
138.495497
 30
0.0
  0
LWPOLYLINE
  5
108
100
AcDbEntity
  8
capa2
 62
7
100
AcDbPolyline
 90
5
 70
1
 10
35.921021
 20
138.495497
 30
0.0
 10
45.100838
 20
138.495497
 30
0.0
 10
45.100838
 20
115.745516
 30
0.0
 10
35.921021
 20
115.745516
 30
0.0
 10
35.921021
 20
138.495497
 30
0.0
  0
LWPOLYLINE
  5
109
100
AcDbEntity
  8
capa2
 62
7
100
AcDbPolyline
 90
5
 70
1
 10
53.083293
 20
136.100776
 30
0.0
 10
59.469253
 20
136.100776
 30
0.0
 10
59.469253
 20
116.144651
 30
0.0
 10
53.083293
 20
116.144651
 30
0.0
 10
53.083293
 20
136.100776
 30
0.0
  0
LWPOLYLINE
  5
10a
100
AcDbEntity
  8
capa2
 62
7
100
AcDbPolyline
 90
5
 70
1
 10
52.285048
 20
111.355173
 30
0.0
 10
62.263110
 20
111.355173
 30
0.0
 10
62.263110
 20
102.175356
 30
0.0
 10
52.285048
 20
102.175356
 30
0.0
 10
52.285048
 20
111.355173
 30
0.0
  0
LWPOLYLINE
  5
10b
100
AcDbEntity
  8
capa2
 62
7
100
AcDbPolyline
 90
5
 70
1
 10
11.973675
 20
110.157812
 30
0.0
 10
19.956125
 20
110.157812
 30
0.0
 10
19.956125
 20
100.977994
 30
0.0
 10
11.973675
 20
100.977994
 30
0.0
 10
11.973675
 20
110.157812
 30
0.0
  0
LWPOLYLINE
  5
10c
100
AcDbEntity
  8
capa2
 62
7
100
AcDbPolyline
 90
5
 70
1
 10
49.890310
 20
163.640224
 30
0.0
 10
59.868373
 20
163.640224
 30
0.0
 10
59.868373
 20
144.083222
 30
0.0
 10
49.890310
 20
144.083222
 30
0.0
 10
49.890310
 20
163.640224
 30
0.0
  0
LWPOLYLINE
  5
10d
100
AcDbEntity
  8
capa2
 62
7
100
AcDbPolyline
 90
5
 70
1
 10
50.289432
 20
191.179671
 30
0.0
 10
60.267494
 20
191.179671
 30
0.0
 10
60.267494
 20
174.017404
 30
0.0
 10
50.289432
 20
174.017404
 30
0.0
 10
50.289432
 20
191.179671
 30
0.0
  0
LWPOLYLINE
  5
10e
100
AcDbEntity
  8
capa2
 62
7
100
AcDbPolyline
 90
5
 70
1
 10
50.688556
 20
215.526144
 30
0.0
 10
60.267496
 20
215.526144
 30
0.0
 10
60.267496
 20
197.565632
 30
0.0
 10
50.688556
 20
197.565632
 30
0.0
 10
50.688556
 20
215.526144
 30
0.0
  0
LWPOLYLINE
  5
10f
100
AcDbEntity
  8
capa2
 62
7
100
AcDbPolyline
 90
5
 70
1
 10
74.236786
 20
215.127023
 30
0.0
 10
85.412216
 20
215.127023
 30
0.0
 10
85.412216
 20
195.170898
 30
0.0
 10
74.236786
 20
195.170898
 30
0.0
 10
74.236786
 20
215.127023
 30
0.0
  0
LWPOLYLINE
  5
110
100
AcDbEntity
  8
capa2
 62
7
100
AcDbPolyline
 90
5
 70
1
 10
74.635910
 20
191.179671
 30
0.0
 10
84.613973
 20
191.179671
 30
0.0
 10
84.613973
 20
171.223547
 30
0.0
 10
74.635910
 20
171.223547
 30
0.0
 10
74.635910
 20
191.179671
 30
0.0
  0
LWPOLYLINE
  5
111
100
AcDbEntity
  8
capa2
 62
7
100
AcDbPolyline
 90
5
 70
1
 10
74.635910
 20
165.635840
 30
0.0
 10
83.017482
 20
165.635840
 30
0.0
 10
83.017482
 20
144.881469
 30
0.0
 10
74.635910
 20
144.881469
 30
0.0
 10
74.635910
 20
165.635840
 30
0.0
  0
LWPOLYLINE
  5
112
100
AcDbEntity
  8
capa2
 62
7
100
AcDbPolyline
 90
5
 70
1
 10
75.035032
 20
138.096384
 30
0.0
 10
81.820114
 20
138.096384
 30
0.0
 10
81.820114
 20
118.539382
 30
0.0
 10
75.035032
 20
118.539382
 30
0.0
 10
75.035032
 20
138.096384
 30
0.0
  0
LWPOLYLINE
  5
113
100
AcDbEntity
  8
capa2
 62
7
100
AcDbPolyline
 90
5
 70
1
 10
110.556929
 20
139.692875
 30
0.0
 10
118.938501
 20
139.692875
 30
0.0
 10
118.938501
 20
118.938505
 30
0.0
 10
110.556929
 20
118.938505
 30
0.0
 10
110.556929
 20
139.692875
 30
0.0
  0
LWPOLYLINE
  5
114
100
AcDbEntity
  8
capa2
 62
7
100
AcDbPolyline
 90
5
 70
1
 10
111.754299
 20
166.833199
 30
0.0
 10
120.135871
 20
166.833199
 30
0.0
 10
120.135871
 20
148.074441
 30
0.0
 10
111.754299
 20
148.074441
 30
0.0
 10
111.754299
 20
166.833199
 30
0.0
  0
LWPOLYLINE
  5
115
100
AcDbEntity
  8
capa2
 62
7
100
AcDbPolyline
 90
5
 70
1
 10
111.754299
 20
193.973533
 30
0.0
 10
120.135871
 20
193.973533
 30
0.0
 10
120.135871
 20
172.820042
 30
0.0
 10
111.754299
 20
172.820042
 30
0.0
 10
111.754299
 20
193.973533
 30
0.0
  0
LWPOLYLINE
  5
116
100
AcDbEntity
  8
capa2
 62
7
100
AcDbPolyline
 90
5
 70
1
 10
111.355175
 20
215.526144
 30
0.0
 10
120.135870
 20
215.526144
 30
0.0
 10
120.135870
 20
197.964755
 30
0.0
 10
111.355175
 20
197.964755
 30
0.0
 10
111.355175
 20
215.526144
 30
0.0
  0
LWPOLYLINE
  5
117
100
AcDbEntity
  8
capa2
 62
7
100
AcDbPolyline
 90
5
 70
1
 10
92.995538
 20
112.951665
 30
0.0
 10
102.574478
 20
112.951665
 30
0.0
 10
102.574478
 20
90.600805
 30
0.0
 10
92.995538
 20
90.600805
 30
0.0
 10
92.995538
 20
112.951665
 30
0.0
  0
LWPOLYLINE
  5
118
100
AcDbEntity
  8
capa2
 62
7
100
AcDbPolyline
 90
5
 70
1
 10
154.460408
 20
216.324390
 30
0.0
 10
164.438471
 20
216.324390
 30
0.0
 10
164.438471
 20
193.574407
 30
0.0
 10
154.460408
 20
193.574407
 30
0.0
 10
154.460408
 20
216.324390
 30
0.0
  0
LWPOLYLINE
  5
119
100
AcDbEntity
  8
capa2
 62
7
100
AcDbPolyline
 90
5
 70
1
 10
156.056900
 20
187.986697
 30
0.0
 10
164.438472
 20
187.986697
 30
0.0
 10
164.438472
 20
171.223552
 30
0.0
 10
156.056900
 20
171.223552
 30
0.0
 10
156.056900
 20
187.986697
 30
0.0
  0
LWPOLYLINE
  5
11a
100
AcDbEntity
  8
capa2
 62
7
100
AcDbPolyline
 90
5
 70
1
 10
154.061276
 20
164.438470
 30
0.0
 10
164.837583
 20
164.438470
 30
0.0
 10
164.837583
 20
145.280591
 30
0.0
 10
154.061276
 20
145.280591
 30
0.0
 10
154.061276
 20
164.438470
 30
0.0
  0
LWPOLYLINE
  5
11b
100
AcDbEntity
  8
capa2
 62
7
100
AcDbPolyline
 90
5
 70
1
 10
155.258654
 20
138.495497
 30
0.0
 10
164.837594
 20
138.495497
 30
0.0
 10
164.837594
 20
120.934107
 30
0.0
 10
155.258654
 20
120.934107
 30
0.0
 10
155.258654
 20
138.495497
 30
0.0
  0
LWPOLYLINE
  5
11c
100
AcDbEntity
  8
capa2
 62
7
100
AcDbPolyline
 90
5
 70
1
 10
154.061276
 20
115.346402
 30
0.0
 10
165.635828
 20
115.346402
 30
0.0
 10
165.635828
 20
91.798175
 30
0.0
 10
154.061276
 20
91.798175
 30
0.0
 10
154.061276
 20
115.346402
 30
0.0
  0
LWPOLYLINE
  5
11d
100
AcDbEntity
  8
capa2
 62
7
100
AcDbPolyline
 90
5
 70
1
 10
135.701648
 20
112.951665
 30
0.0
 10
146.877078
 20
112.951665
 30
0.0
 10
146.877078
 20
92.197294
 30
0.0
 10
135.701648
 20
92.197294
 30
0.0
 10
135.701648
 20
112.951665
 30
0.0
  0
LWPOLYLINE
  5
11e
100
AcDbEntity
  8
capa2
 62
7
100
AcDbPolyline
 90
5
 70
1
 10
173.219161
 20
111.754303
 30
0.0
 10
183.995468
 20
111.754303
 30
0.0
 10
183.995468
 20
91.798179
 30
0.0
 10
173.219161
 20
91.798179
 30
0.0
 10
173.219161
 20
111.754303
 30
0.0
  0
LWPOLYLINE
  5
11f
100
AcDbEntity
  8
capa3
 62
7
100
AcDbPolyline
 90
5
 70
1
 10
23.949038
 20
219.914807
 30
0.0
 10
45.498276
 20
219.914807
 30
0.0
 10
45.498276
 20
197.168200
 30
0.0
 10
23.949038
 20
197.168200
 30
0.0
 10
23.949038
 20
219.914807
 30
0.0
  0
LWPOLYLINE
  5
120
100
AcDbEntity
  8
capa3
 62
7
100
AcDbPolyline
 90
5
 70
1
 10
23.149104
 20
192.776163
 30
0.0
 10
45.499964
 20
192.776163
 30
0.0
 10
45.499964
 20
172.420915
 30
0.0
 10
23.149104
 20
172.420915
 30
0.0
 10
23.149104
 20
192.776163
 30
0.0
  0
LWPOLYLINE
  5
121
100
AcDbEntity
  8
capa3
 62
7
100
AcDbPolyline
 90
5
 70
1
 10
23.947350
 20
166.434077
 30
0.0
 10
45.899087
 20
166.434077
 30
0.0
 10
45.899087
 20
142.885850
 30
0.0
 10
23.947350
 20
142.885850
 30
0.0
 10
23.947350
 20
166.434077
 30
0.0
  0
LWPOLYLINE
  5
122
100
AcDbEntity
  8
capa3
 62
7
100
AcDbPolyline
 90
5
 70
1
 10
26.153367
 20
215.515293
 30
0.0
 10
29.923341
 20
215.515293
 30
0.0
 10
29.923341
 20
205.958044
 30
0.0
 10
26.153367
 20
205.958044
 30
0.0
 10
26.153367
 20
215.515293
 30
0.0
  0
LWPOLYLINE
  5
123
100
AcDbEntity
  8
capa3
 62
7
100
AcDbPolyline
 90
5
 70
1
 10
32.334414
 20
215.720214
 30
0.0
 10
35.915534
 20
215.720214
 30
0.0
 10
35.915534
 20
206.152256
 30
0.0
 10
32.334414
 20
206.152256
 30
0.0
 10
32.334414
 20
215.720214
 30
0.0
  0
LWPOLYLINE
  5
124
100
AcDbEntity
  8
capa3
 62
7
100
AcDbPolyline
 90
5
 70
1
 10
38.508980
 20
215.532483
 30
0.0
 10
42.113757
 20
215.532483
 30
0.0
 10
42.113757
 20
205.940868
 30
0.0
 10
38.508980
 20
205.940868
 30
0.0
 10
38.508980
 20
215.532483
 30
0.0
  0
LWPOLYLINE
  5
125
100
AcDbEntity
  8
capa3
 62
7
100
AcDbPolyline
 90
5
 70
1
 10
26.342085
 20
203.951596
 30
0.0
 10
29.535065
 20
203.951596
 30
0.0
 10
29.535065
 20
198.363881
 30
0.0
 10
26.342085
 20
198.363881
 30
0.0
 10
26.342085
 20
203.951596
 30
0.0
  0
LWPOLYLINE
  5
126
100
AcDbEntity
  8
capa3
 62
7
100
AcDbPolyline
 90
5
 70
1
 10
31.958418
 20
204.122535
 30
0.0
 10
35.692836
 20
204.122535
 30
0.0
 10
35.692836
 20
198.392505
 30
0.0
 10
31.958418
 20
198.392505
 30
0.0
 10
31.958418
 20
204.122535
 30
0.0
  0
LWPOLYLINE
  5
127
100
AcDbEntity
  8
capa3
 62
7
100
AcDbPolyline
 90
5
 70
1
 10
38.135283
 20
204.331633
 30
0.0
 10
41.888775
 20
204.331633
 30
0.0
 10
41.888775
 20
198.582529
 30
0.0
 10
38.135283
 20
198.582529
 30
0.0
 10
38.135283
 20
204.331633
 30
0.0
  0
LWPOLYLINE
  5
128
100
AcDbEntity
  8
capa3
 62
7
100
AcDbPolyline
 90
5
 70
1
 10
24.745596
 20
190.980115
 30
0.0
 10
28.736821
 20
190.980115
 30
0.0
 10
28.736821
 20
181.600736
 30
0.0
 10
24.745596
 20
181.600736
 30
0.0
 10
24.745596
 20
190.980115
 30
0.0
  0
LWPOLYLINE
  5
129
100
AcDbEntity
  8
capa3
 62
7
100
AcDbPolyline
 90
5
 70
1
 10
30.532872
 20
190.381426
 30
0.0
 10
33.526291
 20
190.381426
 30
0.0
 10
33.526291
 20
181.999857
 30
0.0
 10
30.532872
 20
181.999857
 30
0.0
 10
30.532872
 20
190.381426
 30
0.0
  0
LWPOLYLINE
  5
12a
100
AcDbEntity
  8
capa3
 62
7
100
AcDbPolyline
 90
5
 70
1
 10
35.322341
 20
190.181869
 30
0.0
 10
38.315759
 20
190.181869
 30
0.0
 10
38.315759
 20
181.800297
 30
0.0
 10
35.322341
 20
181.800297
 30
0.0
 10
35.322341
 20
190.181869
 30
0.0
  0
LWPOLYLINE
  5
12b
100
AcDbEntity
  8
capa3
 62
7
100
AcDbPolyline
 90
5
 70
1
 10
39.712688
 20
191.578796
 30
0.0
 10
43.703913
 20
191.578796
 30
0.0
 10
43.703913
 20
182.199417
 30
0.0
 10
39.712688
 20
182.199417
 30
0.0
 10
39.712688
 20
191.578796
 30
0.0
  0
LWPOLYLINE
  5
12c
100
AcDbEntity
  8
capa3
 62
7
100
AcDbPolyline
 90
5
 70
1
 10
24.346473
 20
180.403372
 30
0.0
 10
28.736820
 20
180.403372
 30
0.0
 10
28.736820
 20
175.214779
 30
0.0
 10
24.346473
 20
175.214779
 30
0.0
 10
24.346473
 20
180.403372
 30
0.0
  0
LWPOLYLINE
  5
12d
100
AcDbEntity
  8
capa3
 62
7
100
AcDbPolyline
 90
5
 70
1
 10
30.532872
 20
180.602928
 30
0.0
 10
38.315760
 20
180.602928
 30
0.0
 10
38.315760
 20
174.815652
 30
0.0
 10
30.532872
 20
174.815652
 30
0.0
 10
30.532872
 20
180.602928
 30
0.0
  0
LWPOLYLINE
  5
12e
100
AcDbEntity
  8
capa3
 62
7
100
AcDbPolyline
 90
5
 70
1
 10
40.111810
 20
180.802493
 30
0.0
 10
43.903474
 20
180.802493
 30
0.0
 10
43.903474
 20
174.616094
 30
0.0
 10
40.111810
 20
174.616094
 30
0.0
 10
40.111810
 20
180.802493
 30
0.0
  0
LWPOLYLINE
  5
12f
100
AcDbEntity
  8
capa3
 62
7
100
AcDbPolyline
 90
5
 70
1
 10
25.144716
 20
165.436275
 30
0.0
 10
28.936380
 20
165.436275
 30
0.0
 10
28.936380
 20
162.841978
 30
0.0
 10
25.144716
 20
162.841978
 30
0.0
 10
25.144716
 20
165.436275
 30
0.0
  0
LWPOLYLINE
  5
130
100
AcDbEntity
  8
capa3
 62
7
100
AcDbPolyline
 90
5
 70
1
 10
30.532872
 20
165.236715
 30
0.0
 10
37.916638
 20
165.236715
 30
0.0
 10
37.916638
 20
162.442858
 30
0.0
 10
30.532872
 20
162.442858
 30
0.0
 10
30.532872
 20
165.236715
 30
0.0
  0
LWPOLYLINE
  5
131
100
AcDbEntity
  8
capa3
 62
7
100
AcDbPolyline
 90
5
 70
1
 10
40.111810
 20
165.037150
 30
0.0
 10
43.105229
 20
165.037150
 30
0.0
 10
43.105229
 20
163.041538
 30
0.0
 10
40.111810
 20
163.041538
 30
0.0
 10
40.111810
 20
165.037150
 30
0.0
  0
LWPOLYLINE
  5
132
100
AcDbEntity
  8
capa3
 62
7
100
AcDbPolyline
 90
5
 70
1
 10
29.934188
 20
161.644611
 30
0.0
 10
32.927607
 20
161.644611
 30
0.0
 10
32.927607
 20
153.063477
 30
0.0
 10
29.934188
 20
153.063477
 30
0.0
 10
29.934188
 20
161.644611
 30
0.0
  0
LWPOLYLINE
  5
133
100
AcDbEntity
  8
capa3
 62
7
100
AcDbPolyline
 90
5
 70
1
 10
35.122779
 20
161.445051
 30
0.0
 10
37.717075
 20
161.445051
 30
0.0
 10
37.717075
 20
152.863918
 30
0.0
 10
35.122779
 20
152.863918
 30
0.0
 10
35.122779
 20
161.445051
 30
0.0
  0
LWPOLYLINE
  5
134
100
AcDbEntity
  8
capa3
 62
7
100
AcDbPolyline
 90
5
 70
1
 10
24.546034
 20
161.844176
 30
0.0
 10
27.539453
 20
161.844176
 30
0.0
 10
27.539453
 20
159.249879
 30
0.0
 10
24.546034
 20
159.249879
 30
0.0
 10
24.546034
 20
161.844176
 30
0.0
  0
LWPOLYLINE
  5
135
100
AcDbEntity
  8
capa3
 62
7
100
AcDbPolyline
 90
5
 70
1
 10
24.945155
 20
158.252068
 30
0.0
 10
28.138135
 20
158.252068
 30
0.0
 10
28.138135
 20
155.857333
 30
0.0
 10
24.945155
 20
155.857333
 30
0.0
 10
24.945155
 20
158.252068
 30
0.0
  0
LWPOLYLINE
  5
136
100
AcDbEntity
  8
capa3
 62
7
100
AcDbPolyline
 90
5
 70
1
 10
24.546034
 20
154.659964
 30
0.0
 10
27.938575
 20
154.659964
 30
0.0
 10
27.938575
 20
152.664351
 30
0.0
 10
24.546034
 20
152.664351
 30
0.0
 10
24.546034
 20
154.659964
 30
0.0
  0
LWPOLYLINE
  5
137
100
AcDbEntity
  8
capa3
 62
7
100
AcDbPolyline
 90
5
 70
1
 10
39.712688
 20
161.844176
 30
0.0
 10
43.504352
 20
161.844176
 30
0.0
 10
43.504352
 20
159.848563
 30
0.0
 10
39.712688
 20
159.848563
 30
0.0
 10
39.712688
 20
161.844176
 30
0.0
  0
LWPOLYLINE
  5
138
100
AcDbEntity
  8
capa3
 62
7
100
AcDbPolyline
 90
5
 70
1
 10
39.912250
 20
159.050314
 30
0.0
 10
43.504353
 20
159.050314
 30
0.0
 10
43.504353
 20
156.855140
 30
0.0
 10
39.912250
 20
156.855140
 30
0.0
 10
39.912250
 20
159.050314
 30
0.0
  0
LWPOLYLINE
  5
139
100
AcDbEntity
  8
capa3
 62
7
100
AcDbPolyline
 90
5
 70
1
 10
40.111810
 20
155.258653
 30
0.0
 10
43.903474
 20
155.258653
 30
0.0
 10
43.903474
 20
153.063479
 30
0.0
 10
40.111810
 20
153.063479
 30
0.0
 10
40.111810
 20
155.258653
 30
0.0
  0
LWPOLYLINE
  5
13a
100
AcDbEntity
  8
capa3
 62
7
100
AcDbPolyline
 90
5
 70
1
 10
24.945155
 20
151.267432
 30
0.0
 10
28.138135
 20
151.267432
 30
0.0
 10
28.138135
 20
145.480156
 30
0.0
 10
24.945155
 20
145.480156
 30
0.0
 10
24.945155
 20
151.267432
 30
0.0
  0
LWPOLYLINE
  5
13b
100
AcDbEntity
  8
capa3
 62
7
100
AcDbPolyline
 90
5
 70
1
 10
29.535064
 20
151.666545
 30
0.0
 10
37.916636
 20
151.666545
 30
0.0
 10
37.916636
 20
145.280585
 30
0.0
 10
29.535064
 20
145.280585
 30
0.0
 10
29.535064
 20
151.666545
 30
0.0
  0
LWPOLYLINE
  5
13c
100
AcDbEntity
  8
capa3
 62
7
100
AcDbPolyline
 90
5
 70
1
 10
39.912250
 20
151.267432
 30
0.0
 10
44.502159
 20
151.267432
 30
0.0
 10
44.502159
 20
145.081033
 30
0.0
 10
39.912250
 20
145.081033
 30
0.0
 10
39.912250
 20
151.267432
 30
0.0
  0
ENDSEC
  0
SECTION
  2
OBJECTS
  0
DICTIONARY
  5
C
330
0
100
AcDbDictionary
  3
ACAD_GROUP
350
D
  3
ACAD_MLINESTYLE
350
17
  0
DICTIONARY
  5
D
330
C
100
AcDbDictionary
  0
DICTIONARY
  5
1A
330
C
100
AcDbDictionary
  0
DICTIONARY
  5
17
330
C
100
AcDbDictionary
  3
STANDARD
350
18
  0
DICTIONARY
  5
19
330
C
100
AcDbDictionary
  0
ENDSEC
  0
EOF
