  0
SECTION
  2
HEADER
  9
$ACADVER
  1
AC1014
  9
$HANDSEED
  5
FFFF
  9
$MEASUREMENT
 70
     1
  0
ENDSEC
  0
SECTION
  2
TABLES
  0
TABLE
  2
VPORT
  5
8
330
0
100
AcDbSymbolTable
 70
     4
  0
VPORT
  5
2E
330
8
100
AcDbSymbolTableRecord
100
AcDbViewportTableRecord
  2
*ACTIVE
 70
     0
 10
0.0
 20
0.0
 11
1.0
 21
1.0
 12
210.0
 22
148.5
 13
0.0
 23
0.0
 14
10.0
 24
10.0
 15
10.0
 25
10.0
 16
0.0
 26
0.0
 36
1.0
 17
0.0
 27
0.0
 37
0.0
 40
341.0
 41
1.24
 42
50.0
 43
0.0
 44
0.0
 50
0.0
 51
0.0
 71
     0
 72
   100
 73
     1
 74
     3
 75
     0
 76
     0
 77
     0
 78
     0
  0
ENDTAB
  0
TABLE
  2
LTYPE
  5
5
330
0
100
AcDbSymbolTable
 70
     1
  0
LTYPE
  5
14
330
5
100
AcDbSymbolTableRecord
100
AcDbLinetypeTableRecord
  2
BYBLOCK
 70
     0
  3

 72
    65
 73
     0
 40
0.0
  0
LTYPE
  5
15
330
5
100
AcDbSymbolTableRecord
100
AcDbLinetypeTableRecord
  2
BYLAYER
 70
     0
  3

 72
    65
 73
     0
 40
0.0
  0
LTYPE
  5
16
330
5
100
AcDbSymbolTableRecord
100
AcDbLinetypeTableRecord
  2
CONTINUOUS
 70
     0
  3
Solid line
 72
    65
 73
     0
 40
0.0
  0
ENDTAB
  0
TABLE
  2
LAYER
  5
2
100
AcDbSymbolTable
 70
5
  0
LAYER
  5
50
100
AcDbSymbolTableRecord
100
AcDbLayerTableRecord
  2
0
 70
0
  6
CONTINUOUS
  0
LAYER
  5
51
100
AcDbSymbolTableRecord
100
AcDbLayerTableRecord
  2
Layer_1
 70
0
  6
CONTINUOUS
  0
LAYER
  5
52
100
AcDbSymbolTableRecord
100
AcDbLayerTableRecord
  2
capa1
 70
0
  6
CONTINUOUS
  0
LAYER
  5
53
100
AcDbSymbolTableRecord
100
AcDbLayerTableRecord
  2
capa2
 70
0
  6
CONTINUOUS
  0
LAYER
  5
54
100
AcDbSymbolTableRecord
100
AcDbLayerTableRecord
  2
capa3
 70
0
  6
CONTINUOUS
  0
ENDTAB
  0
TABLE
  2
STYLE
  5
3
330
0
100
AcDbSymbolTable
 70
     1
  0
STYLE
  5
11
330
3
100
AcDbSymbolTableRecord
100
AcDbTextStyleTableRecord
  2
STANDARD
 70
     0
 40
0.0
 41
1.0
 50
0.0
 71
     0
 42
2.5
  3
txt
  4

  0
ENDTAB
  0
TABLE
  2
VIEW
  5
6
330
0
100
AcDbSymbolTable
 70
     0
  0
ENDTAB
  0
TABLE
  2
UCS
  5
7
330
0
100
AcDbSymbolTable
 70
     0
  0
ENDTAB
  0
TABLE
  2
APPID
  5
9
330
0
100
AcDbSymbolTable
 70
     2
  0
APPID
  5
12
330
9
100
AcDbSymbolTableRecord
100
AcDbRegAppTableRecord
  2
ACAD
 70
     0
  0
ENDTAB
  0
TABLE
  2
DIMSTYLE
  5
A
330
0
100
AcDbSymbolTable
 70
     1
  0
DIMSTYLE
105
27
330
A
100
AcDbSymbolTableRecord
100
AcDbDimStyleTableRecord
  2
ISO-25
 70
     0
  3

  4

  5

  6

  7

 40
1.0
 41
2.5
 42
0.625
 43
3.75
 44
1.25
 45
0.0
 46
0.0
 47
0.0
 48
0.0
140
2.5
141
2.5
142
0.0
143
0.03937007874016
144
1.0
145
0.0
146
1.0
147
0.625
 71
     0
 72
     0
 73
     0
 74
     0
 75
     0
 76
     0
 77
     1
 78
     8
170
     0
171
     3
172
     1
173
     0
174
     0
175
     0
176
     0
177
     0
178
     0
270
     2
271
     2
272
     2
273
     2
274
     3
340
11
275
     0
280
     0
281
     0
282
     0
283
     0
284
     8
285
     0
286
     0
287
     3
288
     0
  0
ENDTAB
  0
TABLE
  2
BLOCK_RECORD
  5
1
330
0
100
AcDbSymbolTable
 70
     1
  0
BLOCK_RECORD
  5
1F
330
1
100
AcDbSymbolTableRecord
100
AcDbBlockTableRecord
  2
*MODEL_SPACE
  0
BLOCK_RECORD
  5
1B
330
1
100
AcDbSymbolTableRecord
100
AcDbBlockTableRecord
  2
*PAPER_SPACE
  0
ENDTAB
  0
ENDSEC
  0
SECTION
  2
BLOCKS
  0
BLOCK
  5
20
330
1F
100
AcDbEntity
  8
0
100
AcDbBlockBegin
  2
*MODEL_SPACE
 70
     0
 10
0.0
 20
0.0
 30
0.0
  3
*MODEL_SPACE
  1

  0
ENDBLK
  5
21
330
1F
100
AcDbEntity
  8
0
100
AcDbBlockEnd
  0
BLOCK
  5
1C
330
1B
100
AcDbEntity
 67
     1
  8
0
100
AcDbBlockBegin
  2
*PAPER_SPACE
  1

  0
ENDBLK
  5
1D
330
1B
100
AcDbEntity
 67
     1
  8
0
100
AcDbBlockEnd
  0
ENDSEC
  0
SECTION
  2
ENTITIES
  0
LWPOLYLINE
  5
100
100
AcDbEntity
  8
capa1
 62
7
100
AcDbPolyline
 90
9
 70
1
 10
-43.507697
 20
0.377163
 30
0.0
 10
55.477751
 20
0.161997
 30
0.0
 10
54.832194
 20
70.958102
 30
0.0
 10
22.339144
 20
70.742919
 30
0.0
 10
22.123958
 20
72.034032
 30
0.0
 10
-11.229834
 20
71.388474
 30
0.0
 10
-11.229834
 20
69.666989
 30
0.0
 10
-44.368441
 20
69.666989
 30
0.0
 10
-43.507697
 20
0.377163
 30
0.0
  0
LWPOLYLINE
  5
101
100
AcDbEntity
  8
capa2
 62
7
100
AcDbPolyline
 90
5
 70
1
 10
-40.715184
 20
67.304839
 30
0.0
 10
-35.971296
 20
67.304839
 30
0.0
 10
-35.971296
 20
56.966122
 30
0.0
 10
-40.715184
 20
56.966122
 30
0.0
 10
-40.715184
 20
67.304839
 30
0.0
  0
LWPOLYLINE
  5
102
100
AcDbEntity
  8
capa2
 62
7
100
AcDbPolyline
 90
5
 70
1
 10
-40.930568
 20
53.963518
 30
0.0
 10
-36.401466
 20
53.963518
 30
0.0
 10
-36.401466
 20
44.485144
 30
0.0
 10
-40.930568
 20
44.485144
 30
0.0
 10
-40.930568
 20
53.963518
 30
0.0
  0
LWPOLYLINE
  5
103
100
AcDbEntity
  8
capa2
 62
7
100
AcDbPolyline
 90
5
 70
1
 10
-40.925471
 20
39.110608
 30
0.0
 10
-36.191384
 20
39.110608
 30
0.0
 10
-36.191384
 20
28.781692
 30
0.0
 10
-40.925471
 20
28.781692
 30
0.0
 10
-40.925471
 20
39.110608
 30
0.0
  0
LWPOLYLINE
  5
104
100
AcDbEntity
  8
capa2
 62
7
100
AcDbPolyline
 90
5
 70
1
 10
-41.355840
 20
24.477979
 30
0.0
 10
-37.052125
 20
24.477979
 30
0.0
 10
-37.052125
 20
13.288319
 30
0.0
 10
-41.355840
 20
13.288319
 30
0.0
 10
-41.355840
 20
24.477979
 30
0.0
  0
LWPOLYLINE
  5
105
100
AcDbEntity
  8
capa2
 62
7
100
AcDbPolyline
 90
5
 70
1
 10
-34.900269
 20
10.921268
 30
0.0
 10
-28.875068
 20
10.921268
 30
0.0
 10
-28.875068
 20
0.807536
 30
0.0
 10
-34.900269
 20
0.807536
 30
0.0
 10
-34.900269
 20
10.921268
 30
0.0
  0
LWPOLYLINE
  5
106
100
AcDbEntity
  8
capa2
 62
7
100
AcDbPolyline
 90
5
 70
1
 10
-27.368767
 20
11.136462
 30
0.0
 10
-23.280237
 20
11.136462
 30
0.0
 10
-23.280237
 20
0.592360
 30
0.0
 10
-27.368767
 20
0.592360
 30
0.0
 10
-27.368767
 20
11.136462
 30
0.0
  0
LWPOLYLINE
  5
107
100
AcDbEntity
  8
capa2
 62
7
100
AcDbPolyline
 90
5
 70
1
 10
-34.039525
 20
25.769080
 30
0.0
 10
-29.520624
 20
25.769080
 30
0.0
 10
-29.520624
 20
14.149050
 30
0.0
 10
-34.039525
 20
14.149050
 30
0.0
 10
-34.039525
 20
25.769080
 30
0.0
  0
LWPOLYLINE
  5
108
100
AcDbEntity
  8
capa2
 62
7
100
AcDbPolyline
 90
5
 70
1
 10
-27.799139
 20
25.769080
 30
0.0
 10
-22.849867
 20
25.769080
 30
0.0
 10
-22.849867
 20
13.503493
 30
0.0
 10
-27.799139
 20
13.503493
 30
0.0
 10
-27.799139
 20
25.769080
 30
0.0
  0
LWPOLYLINE
  5
109
100
AcDbEntity
  8
capa2
 62
7
100
AcDbPolyline
 90
5
 70
1
 10
-18.546148
 20
24.477979
 30
0.0
 10
-15.103176
 20
24.477979
 30
0.0
 10
-15.103176
 20
13.718690
 30
0.0
 10
-18.546148
 20
13.718690
 30
0.0
 10
-18.546148
 20
24.477979
 30
0.0
  0
LWPOLYLINE
  5
10a
100
AcDbEntity
  8
capa2
 62
7
100
AcDbPolyline
 90
5
 70
1
 10
-18.976520
 20
11.136462
 30
0.0
 10
-13.596876
 20
11.136462
 30
0.0
 10
-13.596876
 20
6.187189
 30
0.0
 10
-18.976520
 20
6.187189
 30
0.0
 10
-18.976520
 20
11.136462
 30
0.0
  0
LWPOLYLINE
  5
10b
100
AcDbEntity
  8
capa2
 62
7
100
AcDbPolyline
 90
5
 70
1
 10
-40.710285
 20
10.490907
 30
0.0
 10
-36.406570
 20
10.490907
 30
0.0
 10
-36.406570
 20
5.541634
 30
0.0
 10
-40.710285
 20
5.541634
 30
0.0
 10
-40.710285
 20
10.490907
 30
0.0
  0
LWPOLYLINE
  5
10c
100
AcDbEntity
  8
capa2
 62
7
100
AcDbPolyline
 90
5
 70
1
 10
-20.267637
 20
39.325788
 30
0.0
 10
-14.887993
 20
39.325788
 30
0.0
 10
-14.887993
 20
28.781686
 30
0.0
 10
-20.267637
 20
28.781686
 30
0.0
 10
-20.267637
 20
39.325788
 30
0.0
  0
LWPOLYLINE
  5
10d
100
AcDbEntity
  8
capa2
 62
7
100
AcDbPolyline
 90
5
 70
1
 10
-20.052450
 20
54.173615
 30
0.0
 10
-14.672806
 20
54.173615
 30
0.0
 10
-14.672806
 20
44.920627
 30
0.0
 10
-20.052450
 20
44.920627
 30
0.0
 10
-20.052450
 20
54.173615
 30
0.0
  0
LWPOLYLINE
  5
10e
100
AcDbEntity
  8
capa2
 62
7
100
AcDbPolyline
 90
5
 70
1
 10
-19.837265
 20
67.299946
 30
0.0
 10
-14.672806
 20
67.299946
 30
0.0
 10
-14.672806
 20
57.616587
 30
0.0
 10
-19.837265
 20
57.616587
 30
0.0
 10
-19.837265
 20
67.299946
 30
0.0
  0
LWPOLYLINE
  5
10f
100
AcDbEntity
  8
capa2
 62
7
100
AcDbPolyline
 90
5
 70
1
 10
-7.141302
 20
67.084765
 30
0.0
 10
-1.116101
 20
67.084765
 30
0.0
 10
-1.116101
 20
56.325477
 30
0.0
 10
-7.141302
 20
56.325477
 30
0.0
 10
-7.141302
 20
67.084765
 30
0.0
  0
LWPOLYLINE
  5
110
100
AcDbEntity
  8
capa2
 62
7
100
AcDbPolyline
 90
5
 70
1
 10
-6.926117
 20
54.173615
 30
0.0
 10
-1.546473
 20
54.173615
 30
0.0
 10
-1.546473
 20
43.414327
 30
0.0
 10
-6.926117
 20
43.414327
 30
0.0
 10
-6.926117
 20
54.173615
 30
0.0
  0
LWPOLYLINE
  5
111
100
AcDbEntity
  8
capa2
 62
7
100
AcDbPolyline
 90
5
 70
1
 10
-6.926117
 20
40.401727
 30
0.0
 10
-2.407216
 20
40.401727
 30
0.0
 10
-2.407216
 20
29.212067
 30
0.0
 10
-6.926117
 20
29.212067
 30
0.0
 10
-6.926117
 20
40.401727
 30
0.0
  0
LWPOLYLINE
  5
112
100
AcDbEntity
  8
capa2
 62
7
100
AcDbPolyline
 90
5
 70
1
 10
-6.710932
 20
25.553900
 30
0.0
 10
-3.052775
 20
25.553900
 30
0.0
 10
-3.052775
 20
15.009798
 30
0.0
 10
-6.710932
 20
15.009798
 30
0.0
 10
-6.710932
 20
25.553900
 30
0.0
  0
LWPOLYLINE
  5
113
100
AcDbEntity
  8
capa2
 62
7
100
AcDbPolyline
 90
5
 70
1
 10
12.440599
 20
26.414655
 30
0.0
 10
16.959500
 20
26.414655
 30
0.0
 10
16.959500
 20
15.224996
 30
0.0
 10
12.440599
 20
15.224996
 30
0.0
 10
12.440599
 20
26.414655
 30
0.0
  0
LWPOLYLINE
  5
114
100
AcDbEntity
  8
capa2
 62
7
100
AcDbPolyline
 90
5
 70
1
 10
13.086154
 20
41.047285
 30
0.0
 10
17.605055
 20
41.047285
 30
0.0
 10
17.605055
 20
30.933553
 30
0.0
 10
13.086154
 20
30.933553
 30
0.0
 10
13.086154
 20
41.047285
 30
0.0
  0
LWPOLYLINE
  5
115
100
AcDbEntity
  8
capa2
 62
7
100
AcDbPolyline
 90
5
 70
1
 10
13.086154
 20
55.679914
 30
0.0
 10
17.605055
 20
55.679914
 30
0.0
 10
17.605055
 20
44.275070
 30
0.0
 10
13.086154
 20
44.275070
 30
0.0
 10
13.086154
 20
55.679914
 30
0.0
  0
LWPOLYLINE
  5
116
100
AcDbEntity
  8
capa2
 62
7
100
AcDbPolyline
 90
5
 70
1
 10
12.870969
 20
67.299946
 30
0.0
 10
17.605056
 20
67.299946
 30
0.0
 10
17.605056
 20
57.831773
 30
0.0
 10
12.870969
 20
57.831773
 30
0.0
 10
12.870969
 20
67.299946
 30
0.0
  0
LWPOLYLINE
  5
117
100
AcDbEntity
  8
capa2
 62
7
100
AcDbPolyline
 90
5
 70
1
 10
2.972421
 20
11.997212
 30
0.0
 10
8.136880
 20
11.997212
 30
0.0
 10
8.136880
 20
-0.053191
 30
0.0
 10
2.972421
 20
-0.053191
 30
0.0
 10
2.972421
 20
11.997212
 30
0.0
  0
LWPOLYLINE
  5
118
100
AcDbEntity
  8
capa2
 62
7
100
AcDbPolyline
 90
5
 70
1
 10
36.111036
 20
67.730326
 30
0.0
 10
41.490680
 20
67.730326
 30
0.0
 10
41.490680
 20
55.464738
 30
0.0
 10
36.111036
 20
55.464738
 30
0.0
 10
36.111036
 20
67.730326
 30
0.0
  0
LWPOLYLINE
  5
119
100
AcDbEntity
  8
capa2
 62
7
100
AcDbPolyline
 90
5
 70
1
 10
36.971774
 20
52.452119
 30
0.0
 10
41.490675
 20
52.452119
 30
0.0
 10
41.490675
 20
43.414317
 30
0.0
 10
36.971774
 20
43.414317
 30
0.0
 10
36.971774
 20
52.452119
 30
0.0
  0
LWPOLYLINE
  5
11a
100
AcDbEntity
  8
capa2
 62
7
100
AcDbPolyline
 90
5
 70
1
 10
35.895847
 20
39.756166
 30
0.0
 10
41.705862
 20
39.756166
 30
0.0
 10
41.705862
 20
29.427250
 30
0.0
 10
35.895847
 20
29.427250
 30
0.0
 10
35.895847
 20
39.756166
 30
0.0
  0
LWPOLYLINE
  5
11b
100
AcDbEntity
  8
capa2
 62
7
100
AcDbPolyline
 90
5
 70
1
 10
36.541405
 20
25.769080
 30
0.0
 10
41.705863
 20
25.769080
 30
0.0
 10
41.705863
 20
16.300907
 30
0.0
 10
36.541405
 20
16.300907
 30
0.0
 10
36.541405
 20
25.769080
 30
0.0
  0
LWPOLYLINE
  5
11c
100
AcDbEntity
  8
capa2
 62
7
100
AcDbPolyline
 90
5
 70
1
 10
35.895847
 20
13.288322
 30
0.0
 10
42.136234
 20
13.288322
 30
0.0
 10
42.136234
 20
0.592362
 30
0.0
 10
35.895847
 20
0.592362
 30
0.0
 10
35.895847
 20
13.288322
 30
0.0
  0
LWPOLYLINE
  5
11d
100
AcDbEntity
  8
capa2
 62
7
100
AcDbPolyline
 90
5
 70
1
 10
25.997304
 20
11.997212
 30
0.0
 10
32.022505
 20
11.997212
 30
0.0
 10
32.022505
 20
0.807552
 30
0.0
 10
25.997304
 20
0.807552
 30
0.0
 10
25.997304
 20
11.997212
 30
0.0
  0
LWPOLYLINE
  5
11e
100
AcDbEntity
  8
capa2
 62
7
100
AcDbPolyline
 90
5
 70
1
 10
46.224757
 20
11.351656
 30
0.0
 10
52.034772
 20
11.351656
 30
0.0
 10
52.034772
 20
0.592368
 30
0.0
 10
46.224757
 20
0.592368
 30
0.0
 10
46.224757
 20
11.351656
 30
0.0
  0
LWPOLYLINE
  5
11f
100
AcDbEntity
  8
capa3
 62
7
100
AcDbPolyline
 90
5
 70
1
 10
-34.253799
 20
69.666071
 30
0.0
 10
-22.635590
 20
69.666071
 30
0.0
 10
-22.635590
 20
57.402303
 30
0.0
 10
-34.253799
 20
57.402303
 30
0.0
 10
-34.253799
 20
69.666071
 30
0.0
  0
LWPOLYLINE
  5
120
100
AcDbEntity
  8
capa3
 62
7
100
AcDbPolyline
 90
5
 70
1
 10
-34.685083
 20
55.034356
 30
0.0
 10
-22.634680
 20
55.034356
 30
0.0
 10
-22.634680
 20
44.059883
 30
0.0
 10
-34.685083
 20
44.059883
 30
0.0
 10
-34.685083
 20
55.034356
 30
0.0
  0
LWPOLYLINE
  5
121
100
AcDbEntity
  8
capa3
 62
7
100
AcDbPolyline
 90
5
 70
1
 10
-34.254711
 20
40.832087
 30
0.0
 10
-22.419495
 20
40.832087
 30
0.0
 10
-22.419495
 20
28.136128
 30
0.0
 10
-34.254711
 20
28.136128
 30
0.0
 10
-34.254711
 20
40.832087
 30
0.0
  0
LWPOLYLINE
  5
122
100
AcDbEntity
  8
capa3
 62
7
100
AcDbPolyline
 90
5
 70
1
 10
-33.065342
 20
67.294090
 30
0.0
 10
-31.032771
 20
67.294090
 30
0.0
 10
-31.032771
 20
62.141326
 30
0.0
 10
-33.065342
 20
62.141326
 30
0.0
 10
-33.065342
 20
67.294090
 30
0.0
  0
LWPOLYLINE
  5
123
100
AcDbEntity
  8
capa3
 62
7
100
AcDbPolyline
 90
5
 70
1
 10
-29.732848
 20
67.404574
 30
0.0
 10
-27.802097
 20
67.404574
 30
0.0
 10
-27.802097
 20
62.246037
 30
0.0
 10
-29.732848
 20
62.246037
 30
0.0
 10
-29.732848
 20
67.404574
 30
0.0
  0
LWPOLYLINE
  5
124
100
AcDbEntity
  8
capa3
 62
7
100
AcDbPolyline
 90
5
 70
1
 10
-26.403849
 20
67.303358
 30
0.0
 10
-24.460344
 20
67.303358
 30
0.0
 10
-24.460344
 20
62.132066
 30
0.0
 10
-26.403849
 20
62.132066
 30
0.0
 10
-26.403849
 20
67.303358
 30
0.0
  0
LWPOLYLINE
  5
125
100
AcDbEntity
  8
capa3
 62
7
100
AcDbPolyline
 90
5
 70
1
 10
-32.963595
 20
61.059552
 30
0.0
 10
-31.242109
 20
61.059552
 30
0.0
 10
-31.242109
 20
58.046952
 30
0.0
 10
-32.963595
 20
58.046952
 30
0.0
 10
-32.963595
 20
61.059552
 30
0.0
  0
LWPOLYLINE
  5
126
100
AcDbEntity
  8
capa3
 62
7
100
AcDbPolyline
 90
5
 70
1
 10
-29.935565
 20
61.151709
 30
0.0
 10
-27.922164
 20
61.151709
 30
0.0
 10
-27.922164
 20
58.062379
 30
0.0
 10
-29.935565
 20
58.062379
 30
0.0
 10
-29.935565
 20
61.151709
 30
0.0
  0
LWPOLYLINE
  5
127
100
AcDbEntity
  8
capa3
 62
7
100
AcDbPolyline
 90
5
 70
1
 10
-26.605327
 20
61.264449
 30
0.0
 10
-24.581642
 20
61.264449
 30
0.0
 10
-24.581642
 20
58.164835
 30
0.0
 10
-26.605327
 20
58.164835
 30
0.0
 10
-26.605327
 20
61.264449
 30
0.0
  0
LWPOLYLINE
  5
128
100
AcDbEntity
  8
capa3
 62
7
100
AcDbPolyline
 90
5
 70
1
 10
-33.824339
 20
54.066026
 30
0.0
 10
-31.672481
 20
54.066026
 30
0.0
 10
-31.672481
 20
49.009161
 30
0.0
 10
-33.824339
 20
49.009161
 30
0.0
 10
-33.824339
 20
54.066026
 30
0.0
  0
LWPOLYLINE
  5
129
100
AcDbEntity
  8
capa3
 62
7
100
AcDbPolyline
 90
5
 70
1
 10
-30.704144
 20
53.743238
 30
0.0
 10
-29.090250
 20
53.743238
 30
0.0
 10
-29.090250
 20
49.224339
 30
0.0
 10
-30.704144
 20
49.224339
 30
0.0
 10
-30.704144
 20
53.743238
 30
0.0
  0
LWPOLYLINE
  5
12a
100
AcDbEntity
  8
capa3
 62
7
100
AcDbPolyline
 90
5
 70
1
 10
-28.121916
 20
53.635646
 30
0.0
 10
-26.508023
 20
53.635646
 30
0.0
 10
-26.508023
 20
49.116745
 30
0.0
 10
-28.121916
 20
49.116745
 30
0.0
 10
-28.121916
 20
53.635646
 30
0.0
  0
LWPOLYLINE
  5
12b
100
AcDbEntity
  8
capa3
 62
7
100
AcDbPolyline
 90
5
 70
1
 10
-25.754873
 20
54.388796
 30
0.0
 10
-23.603015
 20
54.388796
 30
0.0
 10
-23.603015
 20
49.331930
 30
0.0
 10
-25.754873
 20
49.331930
 30
0.0
 10
-25.754873
 20
54.388796
 30
0.0
  0
LWPOLYLINE
  5
12c
100
AcDbEntity
  8
capa3
 62
7
100
AcDbPolyline
 90
5
 70
1
 10
-34.039525
 20
48.363599
 30
0.0
 10
-31.672482
 20
48.363599
 30
0.0
 10
-31.672482
 20
45.566185
 30
0.0
 10
-34.039525
 20
45.566185
 30
0.0
 10
-34.039525
 20
48.363599
 30
0.0
  0
LWPOLYLINE
  5
12d
100
AcDbEntity
  8
capa3
 62
7
100
AcDbPolyline
 90
5
 70
1
 10
-30.704144
 20
48.471191
 30
0.0
 10
-26.508021
 20
48.471191
 30
0.0
 10
-26.508021
 20
45.350998
 30
0.0
 10
-30.704144
 20
45.350998
 30
0.0
 10
-30.704144
 20
48.471191
 30
0.0
  0
LWPOLYLINE
  5
12e
100
AcDbEntity
  8
capa3
 62
7
100
AcDbPolyline
 90
5
 70
1
 10
-25.539688
 20
48.578780
 30
0.0
 10
-23.495423
 20
48.578780
 30
0.0
 10
-23.495423
 20
45.243400
 30
0.0
 10
-25.539688
 20
45.243400
 30
0.0
 10
-25.539688
 20
48.578780
 30
0.0
  0
LWPOLYLINE
  5
12f
100
AcDbEntity
  8
capa3
 62
7
100
AcDbPolyline
 90
5
 70
1
 10
-33.609153
 20
40.294135
 30
0.0
 10
-31.564888
 20
40.294135
 30
0.0
 10
-31.564888
 20
38.895428
 30
0.0
 10
-33.609153
 20
38.895428
 30
0.0
 10
-33.609153
 20
40.294135
 30
0.0
  0
LWPOLYLINE
  5
130
100
AcDbEntity
  8
capa3
 62
7
100
AcDbPolyline
 90
5
 70
1
 10
-30.704144
 20
40.186546
 30
0.0
 10
-26.723207
 20
40.186546
 30
0.0
 10
-26.723207
 20
38.680246
 30
0.0
 10
-30.704144
 20
38.680246
 30
0.0
 10
-30.704144
 20
40.186546
 30
0.0
  0
LWPOLYLINE
  5
131
100
AcDbEntity
  8
capa3
 62
7
100
AcDbPolyline
 90
5
 70
1
 10
-25.539688
 20
40.078938
 30
0.0
 10
-23.925795
 20
40.078938
 30
0.0
 10
-23.925795
 20
39.003009
 30
0.0
 10
-25.539688
 20
39.003009
 30
0.0
 10
-25.539688
 20
40.078938
 30
0.0
  0
LWPOLYLINE
  5
132
100
AcDbEntity
  8
capa3
 62
7
100
AcDbPolyline
 90
5
 70
1
 10
-31.026924
 20
38.249867
 30
0.0
 10
-29.413031
 20
38.249867
 30
0.0
 10
-29.413031
 20
33.623373
 30
0.0
 10
-31.026924
 20
33.623373
 30
0.0
 10
-31.026924
 20
38.249867
 30
0.0
  0
LWPOLYLINE
  5
133
100
AcDbEntity
  8
capa3
 62
7
100
AcDbPolyline
 90
5
 70
1
 10
-28.229509
 20
38.142278
 30
0.0
 10
-26.830802
 20
38.142278
 30
0.0
 10
-26.830802
 20
33.515784
 30
0.0
 10
-28.229509
 20
33.515784
 30
0.0
 10
-28.229509
 20
38.142278
 30
0.0
  0
LWPOLYLINE
  5
134
100
AcDbEntity
  8
capa3
 62
7
100
AcDbPolyline
 90
5
 70
1
 10
-33.931931
 20
38.357459
 30
0.0
 10
-32.318037
 20
38.357459
 30
0.0
 10
-32.318037
 20
36.958751
 30
0.0
 10
-33.931931
 20
36.958751
 30
0.0
 10
-33.931931
 20
38.357459
 30
0.0
  0
LWPOLYLINE
  5
135
100
AcDbEntity
  8
capa3
 62
7
100
AcDbPolyline
 90
5
 70
1
 10
-33.716747
 20
36.420782
 30
0.0
 10
-31.995261
 20
36.420782
 30
0.0
 10
-31.995261
 20
35.129667
 30
0.0
 10
-33.716747
 20
35.129667
 30
0.0
 10
-33.716747
 20
36.420782
 30
0.0
  0
LWPOLYLINE
  5
136
100
AcDbEntity
  8
capa3
 62
7
100
AcDbPolyline
 90
5
 70
1
 10
-33.931931
 20
34.484119
 30
0.0
 10
-32.102852
 20
34.484119
 30
0.0
 10
-32.102852
 20
33.408191
 30
0.0
 10
-33.931931
 20
33.408191
 30
0.0
 10
-33.931931
 20
34.484119
 30
0.0
  0
LWPOLYLINE
  5
137
100
AcDbEntity
  8
capa3
 62
7
100
AcDbPolyline
 90
5
 70
1
 10
-25.754873
 20
38.357459
 30
0.0
 10
-23.710608
 20
38.357459
 30
0.0
 10
-23.710608
 20
37.281530
 30
0.0
 10
-25.754873
 20
37.281530
 30
0.0
 10
-25.754873
 20
38.357459
 30
0.0
  0
LWPOLYLINE
  5
138
100
AcDbEntity
  8
capa3
 62
7
100
AcDbPolyline
 90
5
 70
1
 10
-25.647280
 20
36.851160
 30
0.0
 10
-23.710608
 20
36.851160
 30
0.0
 10
-23.710608
 20
35.667638
 30
0.0
 10
-25.647280
 20
35.667638
 30
0.0
 10
-25.647280
 20
36.851160
 30
0.0
  0
LWPOLYLINE
  5
139
100
AcDbEntity
  8
capa3
 62
7
100
AcDbPolyline
 90
5
 70
1
 10
-25.539688
 20
34.806891
 30
0.0
 10
-23.495423
 20
34.806891
 30
0.0
 10
-23.495423
 20
33.623370
 30
0.0
 10
-25.539688
 20
33.623370
 30
0.0
 10
-25.539688
 20
34.806891
 30
0.0
  0
LWPOLYLINE
  5
13a
100
AcDbEntity
  8
capa3
 62
7
100
AcDbPolyline
 90
5
 70
1
 10
-33.716747
 20
32.655032
 30
0.0
 10
-31.995261
 20
32.655032
 30
0.0
 10
-31.995261
 20
29.534838
 30
0.0
 10
-33.716747
 20
29.534838
 30
0.0
 10
-33.716747
 20
32.655032
 30
0.0
  0
LWPOLYLINE
  5
13b
100
AcDbEntity
  8
capa3
 62
7
100
AcDbPolyline
 90
5
 70
1
 10
-31.242110
 20
32.870215
 30
0.0
 10
-26.723209
 20
32.870215
 30
0.0
 10
-26.723209
 20
29.427242
 30
0.0
 10
-31.242110
 20
29.427242
 30
0.0
 10
-31.242110
 20
32.870215
 30
0.0
  0
LWPOLYLINE
  5
13c
100
AcDbEntity
  8
capa3
 62
7
100
AcDbPolyline
 90
5
 70
1
 10
-25.647280
 20
32.655032
 30
0.0
 10
-23.172644
 20
32.655032
 30
0.0
 10
-23.172644
 20
29.319652
 30
0.0
 10
-25.647280
 20
29.319652
 30
0.0
 10
-25.647280
 20
32.655032
 30
0.0
  0
ENDSEC
  0
SECTION
  2
OBJECTS
  0
DICTIONARY
  5
C
330
0
100
AcDbDictionary
  3
ACAD_GROUP
350
D
  3
ACAD_MLINESTYLE
350
17
  0
DICTIONARY
  5
D
330
C
100
AcDbDictionary
  0
DICTIONARY
  5
1A
330
C
100
AcDbDictionary
  0
DICTIONARY
  5
17
330
C
100
AcDbDictionary
  3
STANDARD
350
18
  0
DICTIONARY
  5
19
330
C
100
AcDbDictionary
  0
ENDSEC
  0
EOF
