  0
SECTION
  2
HEADER
  9
$ACADVER
  1
AC1014
  9
$HANDSEED
  5
FFFF
  9
$MEASUREMENT
 70
     1
  0
ENDSEC
  0
SECTION
  2
TABLES
  0
TABLE
  2
VPORT
  5
8
330
0
100
AcDbSymbolTable
 70
     4
  0
VPORT
  5
2E
330
8
100
AcDbSymbolTableRecord
100
AcDbViewportTableRecord
  2
*ACTIVE
 70
     0
 10
0.0
 20
0.0
 11
1.0
 21
1.0
 12
210.0
 22
148.5
 13
0.0
 23
0.0
 14
10.0
 24
10.0
 15
10.0
 25
10.0
 16
0.0
 26
0.0
 36
1.0
 17
0.0
 27
0.0
 37
0.0
 40
341.0
 41
1.24
 42
50.0
 43
0.0
 44
0.0
 50
0.0
 51
0.0
 71
     0
 72
   100
 73
     1
 74
     3
 75
     0
 76
     0
 77
     0
 78
     0
  0
ENDTAB
  0
TABLE
  2
LTYPE
  5
5
330
0
100
AcDbSymbolTable
 70
     1
  0
LTYPE
  5
14
330
5
100
AcDbSymbolTableRecord
100
AcDbLinetypeTableRecord
  2
BYBLOCK
 70
     0
  3

 72
    65
 73
     0
 40
0.0
  0
LTYPE
  5
15
330
5
100
AcDbSymbolTableRecord
100
AcDbLinetypeTableRecord
  2
BYLAYER
 70
     0
  3

 72
    65
 73
     0
 40
0.0
  0
LTYPE
  5
16
330
5
100
AcDbSymbolTableRecord
100
AcDbLinetypeTableRecord
  2
CONTINUOUS
 70
     0
  3
Solid line
 72
    65
 73
     0
 40
0.0
  0
ENDTAB
  0
TABLE
  2
LAYER
  5
2
100
AcDbSymbolTable
 70
5
  0
LAYER
  5
50
100
AcDbSymbolTableRecord
100
AcDbLayerTableRecord
  2
0
 70
0
  6
CONTINUOUS
  0
LAYER
  5
51
100
AcDbSymbolTableRecord
100
AcDbLayerTableRecord
  2
Layer_1
 70
0
  6
CONTINUOUS
  0
LAYER
  5
52
100
AcDbSymbolTableRecord
100
AcDbLayerTableRecord
  2
capa1
 70
0
  6
CONTINUOUS
  0
LAYER
  5
53
100
AcDbSymbolTableRecord
100
AcDbLayerTableRecord
  2
capa2
 70
0
  6
CONTINUOUS
  0
LAYER
  5
54
100
AcDbSymbolTableRecord
100
AcDbLayerTableRecord
  2
capa3
 70
0
  6
CONTINUOUS
  0
ENDTAB
  0
TABLE
  2
STYLE
  5
3
330
0
100
AcDbSymbolTable
 70
     1
  0
STYLE
  5
11
330
3
100
AcDbSymbolTableRecord
100
AcDbTextStyleTableRecord
  2
STANDARD
 70
     0
 40
0.0
 41
1.0
 50
0.0
 71
     0
 42
2.5
  3
txt
  4

  0
ENDTAB
  0
TABLE
  2
VIEW
  5
6
330
0
100
AcDbSymbolTable
 70
     0
  0
ENDTAB
  0
TABLE
  2
UCS
  5
7
330
0
100
AcDbSymbolTable
 70
     0
  0
ENDTAB
  0
TABLE
  2
APPID
  5
9
330
0
100
AcDbSymbolTable
 70
     2
  0
APPID
  5
12
330
9
100
AcDbSymbolTableRecord
100
AcDbRegAppTableRecord
  2
ACAD
 70
     0
  0
ENDTAB
  0
TABLE
  2
DIMSTYLE
  5
A
330
0
100
AcDbSymbolTable
 70
     1
  0
DIMSTYLE
105
27
330
A
100
AcDbSymbolTableRecord
100
AcDbDimStyleTableRecord
  2
ISO-25
 70
     0
  3

  4

  5

  6

  7

 40
1.0
 41
2.5
 42
0.625
 43
3.75
 44
1.25
 45
0.0
 46
0.0
 47
0.0
 48
0.0
140
2.5
141
2.5
142
0.0
143
0.03937007874016
144
1.0
145
0.0
146
1.0
147
0.625
 71
     0
 72
     0
 73
     0
 74
     0
 75
     0
 76
     0
 77
     1
 78
     8
170
     0
171
     3
172
     1
173
     0
174
     0
175
     0
176
     0
177
     0
178
     0
270
     2
271
     2
272
     2
273
     2
274
     3
340
11
275
     0
280
     0
281
     0
282
     0
283
     0
284
     8
285
     0
286
     0
287
     3
288
     0
  0
ENDTAB
  0
TABLE
  2
BLOCK_RECORD
  5
1
330
0
100
AcDbSymbolTable
 70
     1
  0
BLOCK_RECORD
  5
1F
330
1
100
AcDbSymbolTableRecord
100
AcDbBlockTableRecord
  2
*MODEL_SPACE
  0
BLOCK_RECORD
  5
1B
330
1
100
AcDbSymbolTableRecord
100
AcDbBlockTableRecord
  2
*PAPER_SPACE
  0
ENDTAB
  0
ENDSEC
  0
SECTION
  2
BLOCKS
  0
BLOCK
  5
20
330
1F
100
AcDbEntity
  8
0
100
AcDbBlockBegin
  2
*MODEL_SPACE
 70
     0
 10
0.0
 20
0.0
 30
0.0
  3
*MODEL_SPACE
  1

  0
ENDBLK
  5
21
330
1F
100
AcDbEntity
  8
0
100
AcDbBlockEnd
  0
BLOCK
  5
1C
330
1B
100
AcDbEntity
 67
     1
  8
0
100
AcDbBlockBegin
  2
*PAPER_SPACE
  1

  0
ENDBLK
  5
1D
330
1B
100
AcDbEntity
 67
     1
  8
0
100
AcDbBlockEnd
  0
ENDSEC
  0
SECTION
  2
ENTITIES
  0
LWPOLYLINE
  5
100
100
AcDbEntity
  8
capa1
 62
7
100
AcDbPolyline
 90
9
 70
1
 10
0.515307
 20
0.421585
 30
0.0
 10
10.413851
 20
0.400136
 30
0.0
 10
10.349295
 20
7.479765
 30
0.0
 10
7.099992
 20
7.458316
 30
0.0
 10
7.078458
 20
7.587433
 30
0.0
 10
3.743080
 20
7.522889
 30
0.0
 10
3.743080
 20
7.350733
 30
0.0
 10
0.429218
 20
7.350733
 30
0.0
 10
0.515307
 20
0.421585
 30
0.0
  0
LWPOLYLINE
  5
101
100
AcDbEntity
  8
capa2
 62
7
100
AcDbPolyline
 90
5
 70
1
 10
0.794560
 20
7.114372
 30
0.0
 10
1.268949
 20
7.114372
 30
0.0
 10
1.268949
 20
6.080500
 30
0.0
 10
0.794560
 20
6.080500
 30
0.0
 10
0.794560
 20
7.114372
 30
0.0
  0
LWPOLYLINE
  5
102
100
AcDbEntity
  8
capa2
 62
7
100
AcDbPolyline
 90
5
 70
1
 10
0.773020
 20
5.780223
 30
0.0
 10
1.225930
 20
5.780223
 30
0.0
 10
1.225930
 20
4.832385
 30
0.0
 10
0.773020
 20
4.832385
 30
0.0
 10
0.773020
 20
5.780223
 30
0.0
  0
LWPOLYLINE
  5
103
100
AcDbEntity
  8
capa2
 62
7
100
AcDbPolyline
 90
5
 70
1
 10
0.773532
 20
4.294944
 30
0.0
 10
1.246941
 20
4.294944
 30
0.0
 10
1.246941
 20
3.262052
 30
0.0
 10
0.773532
 20
3.262052
 30
0.0
 10
0.773532
 20
4.294944
 30
0.0
  0
LWPOLYLINE
  5
104
100
AcDbEntity
  8
capa2
 62
7
100
AcDbPolyline
 90
5
 70
1
 10
0.730494
 20
2.831678
 30
0.0
 10
1.160866
 20
2.831678
 30
0.0
 10
1.160866
 20
1.712712
 30
0.0
 10
0.730494
 20
1.712712
 30
0.0
 10
0.730494
 20
2.831678
 30
0.0
  0
LWPOLYLINE
  5
105
100
AcDbEntity
  8
capa2
 62
7
100
AcDbPolyline
 90
5
 70
1
 10
1.376049
 20
1.475995
 30
0.0
 10
1.978570
 20
1.475995
 30
0.0
 10
1.978570
 20
0.464622
 30
0.0
 10
1.376049
 20
0.464622
 30
0.0
 10
1.376049
 20
1.475995
 30
0.0
  0
LWPOLYLINE
  5
106
100
AcDbEntity
  8
capa2
 62
7
100
AcDbPolyline
 90
5
 70
1
 10
2.129199
 20
1.497557
 30
0.0
 10
2.538052
 20
1.497557
 30
0.0
 10
2.538052
 20
0.443147
 30
0.0
 10
2.129199
 20
0.443147
 30
0.0
 10
2.129199
 20
1.497557
 30
0.0
  0
LWPOLYLINE
  5
107
100
AcDbEntity
  8
capa2
 62
7
100
AcDbPolyline
 90
5
 70
1
 10
1.462125
 20
2.960795
 30
0.0
 10
1.914015
 20
2.960795
 30
0.0
 10
1.914015
 20
1.798791
 30
0.0
 10
1.462125
 20
1.798791
 30
0.0
 10
1.462125
 20
2.960795
 30
0.0
  0
LWPOLYLINE
  5
108
100
AcDbEntity
  8
capa2
 62
7
100
AcDbPolyline
 90
5
 70
1
 10
2.086161
 20
2.960795
 30
0.0
 10
2.581088
 20
2.960795
 30
0.0
 10
2.581088
 20
1.734236
 30
0.0
 10
2.086161
 20
1.734236
 30
0.0
 10
2.086161
 20
2.960795
 30
0.0
  0
LWPOLYLINE
  5
109
100
AcDbEntity
  8
capa2
 62
7
100
AcDbPolyline
 90
5
 70
1
 10
3.011462
 20
2.831678
 30
0.0
 10
3.355759
 20
2.831678
 30
0.0
 10
3.355759
 20
1.755749
 30
0.0
 10
3.011462
 20
1.755749
 30
0.0
 10
3.011462
 20
2.831678
 30
0.0
  0
LWPOLYLINE
  5
10a
100
AcDbEntity
  8
capa2
 62
7
100
AcDbPolyline
 90
5
 70
1
 10
2.968424
 20
1.497557
 30
0.0
 10
3.506389
 20
1.497557
 30
0.0
 10
3.506389
 20
1.002630
 30
0.0
 10
2.968424
 20
1.002630
 30
0.0
 10
2.968424
 20
1.497557
 30
0.0
  0
LWPOLYLINE
  5
10b
100
AcDbEntity
  8
capa2
 62
7
100
AcDbPolyline
 90
5
 70
1
 10
0.795047
 20
1.432956
 30
0.0
 10
1.225419
 20
1.432956
 30
0.0
 10
1.225419
 20
0.938029
 30
0.0
 10
0.795047
 20
0.938029
 30
0.0
 10
0.795047
 20
1.432956
 30
0.0
  0
LWPOLYLINE
  5
10c
100
AcDbEntity
  8
capa2
 62
7
100
AcDbPolyline
 90
5
 70
1
 10
2.839311
 20
4.316449
 30
0.0
 10
3.377275
 20
4.316449
 30
0.0
 10
3.377275
 20
3.262039
 30
0.0
 10
2.839311
 20
3.262039
 30
0.0
 10
2.839311
 20
4.316449
 30
0.0
  0
LWPOLYLINE
  5
10d
100
AcDbEntity
  8
capa2
 62
7
100
AcDbPolyline
 90
5
 70
1
 10
2.860830
 20
5.801248
 30
0.0
 10
3.398794
 20
5.801248
 30
0.0
 10
3.398794
 20
4.875950
 30
0.0
 10
2.860830
 20
4.875950
 30
0.0
 10
2.860830
 20
5.801248
 30
0.0
  0
LWPOLYLINE
  5
10e
100
AcDbEntity
  8
capa2
 62
7
100
AcDbPolyline
 90
5
 70
1
 10
2.882349
 20
7.113864
 30
0.0
 10
3.398794
 20
7.113864
 30
0.0
 10
3.398794
 20
6.145528
 30
0.0
 10
2.882349
 20
6.145528
 30
0.0
 10
2.882349
 20
7.113864
 30
0.0
  0
LWPOLYLINE
  5
10f
100
AcDbEntity
  8
capa2
 62
7
100
AcDbPolyline
 90
5
 70
1
 10
4.151948
 20
7.092359
 30
0.0
 10
4.754468
 20
7.092359
 30
0.0
 10
4.754468
 20
6.016430
 30
0.0
 10
4.151948
 20
6.016430
 30
0.0
 10
4.151948
 20
7.092359
 30
0.0
  0
LWPOLYLINE
  5
110
100
AcDbEntity
  8
capa2
 62
7
100
AcDbPolyline
 90
5
 70
1
 10
4.173463
 20
5.801248
 30
0.0
 10
4.711427
 20
5.801248
 30
0.0
 10
4.711427
 20
4.725320
 30
0.0
 10
4.173463
 20
4.725320
 30
0.0
 10
4.173463
 20
5.801248
 30
0.0
  0
LWPOLYLINE
  5
111
100
AcDbEntity
  8
capa2
 62
7
100
AcDbPolyline
 90
5
 70
1
 10
4.173463
 20
4.424060
 30
0.0
 10
4.625353
 20
4.424060
 30
0.0
 10
4.625353
 20
3.305095
 30
0.0
 10
4.173463
 20
3.305095
 30
0.0
 10
4.173463
 20
4.424060
 30
0.0
  0
LWPOLYLINE
  5
112
100
AcDbEntity
  8
capa2
 62
7
100
AcDbPolyline
 90
5
 70
1
 10
4.194982
 20
2.939261
 30
0.0
 10
4.560797
 20
2.939261
 30
0.0
 10
4.560797
 20
1.884851
 30
0.0
 10
4.194982
 20
1.884851
 30
0.0
 10
4.194982
 20
2.939261
 30
0.0
  0
LWPOLYLINE
  5
113
100
AcDbEntity
  8
capa2
 62
7
100
AcDbPolyline
 90
5
 70
1
 10
6.110136
 20
3.025339
 30
0.0
 10
6.562026
 20
3.025339
 30
0.0
 10
6.562026
 20
1.906373
 30
0.0
 10
6.110136
 20
1.906373
 30
0.0
 10
6.110136
 20
3.025339
 30
0.0
  0
LWPOLYLINE
  5
114
100
AcDbEntity
  8
capa2
 62
7
100
AcDbPolyline
 90
5
 70
1
 10
6.174693
 20
4.488576
 30
0.0
 10
6.626583
 20
4.488576
 30
0.0
 10
6.626583
 20
3.477203
 30
0.0
 10
6.174693
 20
3.477203
 30
0.0
 10
6.174693
 20
4.488576
 30
0.0
  0
LWPOLYLINE
  5
115
100
AcDbEntity
  8
capa2
 62
7
100
AcDbPolyline
 90
5
 70
1
 10
6.174693
 20
5.951870
 30
0.0
 10
6.626583
 20
5.951870
 30
0.0
 10
6.626583
 20
4.811386
 30
0.0
 10
6.174693
 20
4.811386
 30
0.0
 10
6.174693
 20
5.951870
 30
0.0
  0
LWPOLYLINE
  5
116
100
AcDbEntity
  8
capa2
 62
7
100
AcDbPolyline
 90
5
 70
1
 10
6.153174
 20
7.113864
 30
0.0
 10
6.626582
 20
7.113864
 30
0.0
 10
6.626582
 20
6.167047
 30
0.0
 10
6.153174
 20
6.167047
 30
0.0
 10
6.153174
 20
7.113864
 30
0.0
  0
LWPOLYLINE
  5
117
100
AcDbEntity
  8
capa2
 62
7
100
AcDbPolyline
 90
5
 70
1
 10
5.163320
 20
1.583607
 30
0.0
 10
5.679766
 20
1.583607
 30
0.0
 10
5.679766
 20
0.378566
 30
0.0
 10
5.163320
 20
0.378566
 30
0.0
 10
5.163320
 20
1.583607
 30
0.0
  0
LWPOLYLINE
  5
118
100
AcDbEntity
  8
capa2
 62
7
100
AcDbPolyline
 90
5
 70
1
 10
8.477179
 20
7.156903
 30
0.0
 10
9.015143
 20
7.156903
 30
0.0
 10
9.015143
 20
5.930344
 30
0.0
 10
8.477179
 20
5.930344
 30
0.0
 10
8.477179
 20
7.156903
 30
0.0
  0
LWPOLYLINE
  5
119
100
AcDbEntity
  8
capa2
 62
7
100
AcDbPolyline
 90
5
 70
1
 10
8.563255
 20
5.629093
 30
0.0
 10
9.015145
 20
5.629093
 30
0.0
 10
9.015145
 20
4.725313
 30
0.0
 10
8.563255
 20
4.725313
 30
0.0
 10
8.563255
 20
5.629093
 30
0.0
  0
LWPOLYLINE
  5
11a
100
AcDbEntity
  8
capa2
 62
7
100
AcDbPolyline
 90
5
 70
1
 10
8.455660
 20
4.359488
 30
0.0
 10
9.036662
 20
4.359488
 30
0.0
 10
9.036662
 20
3.326596
 30
0.0
 10
8.455660
 20
3.326596
 30
0.0
 10
8.455660
 20
4.359488
 30
0.0
  0
LWPOLYLINE
  5
11b
100
AcDbEntity
  8
capa2
 62
7
100
AcDbPolyline
 90
5
 70
1
 10
8.520217
 20
2.960795
 30
0.0
 10
9.036663
 20
2.960795
 30
0.0
 10
9.036663
 20
2.013977
 30
0.0
 10
8.520217
 20
2.013977
 30
0.0
 10
8.520217
 20
2.960795
 30
0.0
  0
LWPOLYLINE
  5
11c
100
AcDbEntity
  8
capa2
 62
7
100
AcDbPolyline
 90
5
 70
1
 10
8.455660
 20
1.712695
 30
0.0
 10
9.079699
 20
1.712695
 30
0.0
 10
9.079699
 20
0.443099
 30
0.0
 10
8.455660
 20
0.443099
 30
0.0
 10
8.455660
 20
1.712695
 30
0.0
  0
LWPOLYLINE
  5
11d
100
AcDbEntity
  8
capa2
 62
7
100
AcDbPolyline
 90
5
 70
1
 10
7.465807
 20
1.583607
 30
0.0
 10
8.068327
 20
1.583607
 30
0.0
 10
8.068327
 20
0.464641
 30
0.0
 10
7.465807
 20
0.464641
 30
0.0
 10
7.465807
 20
1.583607
 30
0.0
  0
LWPOLYLINE
  5
11e
100
AcDbEntity
  8
capa2
 62
7
100
AcDbPolyline
 90
5
 70
1
 10
9.488552
 20
1.519006
 30
0.0
 10
10.069554
 20
1.519006
 30
0.0
 10
10.069554
 20
0.443077
 30
0.0
 10
9.488552
 20
0.443077
 30
0.0
 10
9.488552
 20
1.519006
 30
0.0
  0
LWPOLYLINE
  5
11f
100
AcDbEntity
  8
capa3
 62
7
100
AcDbPolyline
 90
5
 70
1
 10
1.440697
 20
7.350507
 30
0.0
 10
2.602517
 20
7.350507
 30
0.0
 10
2.602517
 20
6.124130
 30
0.0
 10
1.440697
 20
6.124130
 30
0.0
 10
1.440697
 20
7.350507
 30
0.0
  0
LWPOLYLINE
  5
120
100
AcDbEntity
  8
capa3
 62
7
100
AcDbPolyline
 90
5
 70
1
 10
1.397568
 20
5.887298
 30
0.0
 10
2.602609
 20
5.887298
 30
0.0
 10
2.602609
 20
4.789851
 30
0.0
 10
1.397568
 20
4.789851
 30
0.0
 10
1.397568
 20
5.887298
 30
0.0
  0
LWPOLYLINE
  5
121
100
AcDbEntity
  8
capa3
 62
7
100
AcDbPolyline
 90
5
 70
1
 10
1.440606
 20
4.467099
 30
0.0
 10
2.624128
 20
4.467099
 30
0.0
 10
2.624128
 20
3.197504
 30
0.0
 10
1.440606
 20
3.197504
 30
0.0
 10
1.440606
 20
4.467099
 30
0.0
  0
LWPOLYLINE
  5
122
100
AcDbEntity
  8
capa3
 62
7
100
AcDbPolyline
 90
5
 70
1
 10
1.559544
 20
7.113300
 30
0.0
 10
1.762801
 20
7.113300
 30
0.0
 10
1.762801
 20
6.598023
 30
0.0
 10
1.559544
 20
6.598023
 30
0.0
 10
1.559544
 20
7.113300
 30
0.0
  0
LWPOLYLINE
  5
123
100
AcDbEntity
  8
capa3
 62
7
100
AcDbPolyline
 90
5
 70
1
 10
1.892792
 20
7.124334
 30
0.0
 10
2.085867
 20
7.124334
 30
0.0
 10
2.085867
 20
6.608481
 30
0.0
 10
1.892792
 20
6.608481
 30
0.0
 10
1.892792
 20
7.124334
 30
0.0
  0
LWPOLYLINE
  5
124
100
AcDbEntity
  8
capa3
 62
7
100
AcDbPolyline
 90
5
 70
1
 10
2.225692
 20
7.114203
 30
0.0
 10
2.420042
 20
7.114203
 30
0.0
 10
2.420042
 20
6.597074
 30
0.0
 10
2.225692
 20
6.597074
 30
0.0
 10
2.225692
 20
7.114203
 30
0.0
  0
LWPOLYLINE
  5
125
100
AcDbEntity
  8
capa3
 62
7
100
AcDbPolyline
 90
5
 70
1
 10
1.569715
 20
6.489842
 30
0.0
 10
1.741864
 20
6.489842
 30
0.0
 10
1.741864
 20
6.188582
 30
0.0
 10
1.569715
 20
6.188582
 30
0.0
 10
1.569715
 20
6.489842
 30
0.0
  0
LWPOLYLINE
  5
126
100
AcDbEntity
  8
capa3
 62
7
100
AcDbPolyline
 90
5
 70
1
 10
1.872518
 20
6.499043
 30
0.0
 10
2.073858
 20
6.499043
 30
0.0
 10
2.073858
 20
6.190110
 30
0.0
 10
1.872518
 20
6.190110
 30
0.0
 10
1.872518
 20
6.499043
 30
0.0
  0
LWPOLYLINE
  5
127
100
AcDbEntity
  8
capa3
 62
7
100
AcDbPolyline
 90
5
 70
1
 10
2.205542
 20
6.510332
 30
0.0
 10
2.407911
 20
6.510332
 30
0.0
 10
2.407911
 20
6.200370
 30
0.0
 10
2.205542
 20
6.200370
 30
0.0
 10
2.205542
 20
6.510332
 30
0.0
  0
LWPOLYLINE
  5
128
100
AcDbEntity
  8
capa3
 62
7
100
AcDbPolyline
 90
5
 70
1
 10
1.483644
 20
5.790496
 30
0.0
 10
1.698830
 20
5.790496
 30
0.0
 10
1.698830
 20
5.284809
 30
0.0
 10
1.483644
 20
5.284809
 30
0.0
 10
1.483644
 20
5.790496
 30
0.0
  0
LWPOLYLINE
  5
129
100
AcDbEntity
  8
capa3
 62
7
100
AcDbPolyline
 90
5
 70
1
 10
1.795662
 20
5.758210
 30
0.0
 10
1.957051
 20
5.758210
 30
0.0
 10
1.957051
 20
5.306320
 30
0.0
 10
1.795662
 20
5.306320
 30
0.0
 10
1.795662
 20
5.758210
 30
0.0
  0
LWPOLYLINE
  5
12a
100
AcDbEntity
  8
capa3
 62
7
100
AcDbPolyline
 90
5
 70
1
 10
2.053885
 20
5.747457
 30
0.0
 10
2.215274
 20
5.747457
 30
0.0
 10
2.215274
 20
5.295567
 30
0.0
 10
2.053885
 20
5.295567
 30
0.0
 10
2.053885
 20
5.747457
 30
0.0
  0
LWPOLYLINE
  5
12b
100
AcDbEntity
  8
capa3
 62
7
100
AcDbPolyline
 90
5
 70
1
 10
2.290589
 20
5.822782
 30
0.0
 10
2.505775
 20
5.822782
 30
0.0
 10
2.505775
 20
5.317095
 30
0.0
 10
2.290589
 20
5.317095
 30
0.0
 10
2.290589
 20
5.822782
 30
0.0
  0
LWPOLYLINE
  5
12c
100
AcDbEntity
  8
capa3
 62
7
100
AcDbPolyline
 90
5
 70
1
 10
1.462125
 20
5.220266
 30
0.0
 10
1.698829
 20
5.220266
 30
0.0
 10
1.698829
 20
4.940524
 30
0.0
 10
1.462125
 20
4.940524
 30
0.0
 10
1.462125
 20
5.220266
 30
0.0
  0
LWPOLYLINE
  5
12d
100
AcDbEntity
  8
capa3
 62
7
100
AcDbPolyline
 90
5
 70
1
 10
1.795662
 20
5.230962
 30
0.0
 10
2.215274
 20
5.230962
 30
0.0
 10
2.215274
 20
4.918943
 30
0.0
 10
1.795662
 20
4.918943
 30
0.0
 10
1.795662
 20
5.230962
 30
0.0
  0
LWPOLYLINE
  5
12e
100
AcDbEntity
  8
capa3
 62
7
100
AcDbPolyline
 90
5
 70
1
 10
2.312108
 20
5.241743
 30
0.0
 10
2.516534
 20
5.241743
 30
0.0
 10
2.516534
 20
4.908205
 30
0.0
 10
2.312108
 20
4.908205
 30
0.0
 10
2.312108
 20
5.241743
 30
0.0
  0
LWPOLYLINE
  5
12f
100
AcDbEntity
  8
capa3
 62
7
100
AcDbPolyline
 90
5
 70
1
 10
1.505159
 20
4.413280
 30
0.0
 10
1.709585
 20
4.413280
 30
0.0
 10
1.709585
 20
4.273409
 30
0.0
 10
1.505159
 20
4.273409
 30
0.0
 10
1.505159
 20
4.413280
 30
0.0
  0
LWPOLYLINE
  5
130
100
AcDbEntity
  8
capa3
 62
7
100
AcDbPolyline
 90
5
 70
1
 10
1.795662
 20
4.402527
 30
0.0
 10
2.193756
 20
4.402527
 30
0.0
 10
2.193756
 20
4.251897
 30
0.0
 10
1.795662
 20
4.251897
 30
0.0
 10
1.795662
 20
4.402527
 30
0.0
  0
LWPOLYLINE
  5
131
100
AcDbEntity
  8
capa3
 62
7
100
AcDbPolyline
 90
5
 70
1
 10
2.312108
 20
4.391774
 30
0.0
 10
2.473497
 20
4.391774
 30
0.0
 10
2.473497
 20
4.284181
 30
0.0
 10
2.312108
 20
4.284181
 30
0.0
 10
2.312108
 20
4.391774
 30
0.0
  0
LWPOLYLINE
  5
132
100
AcDbEntity
  8
capa3
 62
7
100
AcDbPolyline
 90
5
 70
1
 10
1.763381
 20
4.208866
 30
0.0
 10
1.924771
 20
4.208866
 30
0.0
 10
1.924771
 20
3.746217
 30
0.0
 10
1.763381
 20
3.746217
 30
0.0
 10
1.763381
 20
4.208866
 30
0.0
  0
LWPOLYLINE
  5
133
100
AcDbEntity
  8
capa3
 62
7
100
AcDbPolyline
 90
5
 70
1
 10
2.043127
 20
4.198085
 30
0.0
 10
2.182998
 20
4.198085
 30
0.0
 10
2.182998
 20
3.735436
 30
0.0
 10
2.043127
 20
3.735436
 30
0.0
 10
2.043127
 20
4.198085
 30
0.0
  0
LWPOLYLINE
  5
134
100
AcDbEntity
  8
capa3
 62
7
100
AcDbPolyline
 90
5
 70
1
 10
1.472882
 20
4.219619
 30
0.0
 10
1.634272
 20
4.219619
 30
0.0
 10
1.634272
 20
4.079748
 30
0.0
 10
1.472882
 20
4.079748
 30
0.0
 10
1.472882
 20
4.219619
 30
0.0
  0
LWPOLYLINE
  5
135
100
AcDbEntity
  8
capa3
 62
7
100
AcDbPolyline
 90
5
 70
1
 10
1.494401
 20
4.025958
 30
0.0
 10
1.666550
 20
4.025958
 30
0.0
 10
1.666550
 20
3.896846
 30
0.0
 10
1.494401
 20
3.896846
 30
0.0
 10
1.494401
 20
4.025958
 30
0.0
  0
LWPOLYLINE
  5
136
100
AcDbEntity
  8
capa3
 62
7
100
AcDbPolyline
 90
5
 70
1
 10
1.472882
 20
3.832269
 30
0.0
 10
1.655790
 20
3.832269
 30
0.0
 10
1.655790
 20
3.724676
 30
0.0
 10
1.472882
 20
3.724676
 30
0.0
 10
1.472882
 20
3.832269
 30
0.0
  0
LWPOLYLINE
  5
137
100
AcDbEntity
  8
capa3
 62
7
100
AcDbPolyline
 90
5
 70
1
 10
2.290589
 20
4.219619
 30
0.0
 10
2.495015
 20
4.219619
 30
0.0
 10
2.495015
 20
4.112026
 30
0.0
 10
2.290589
 20
4.112026
 30
0.0
 10
2.290589
 20
4.219619
 30
0.0
  0
LWPOLYLINE
  5
138
100
AcDbEntity
  8
capa3
 62
7
100
AcDbPolyline
 90
5
 70
1
 10
2.301350
 20
4.068997
 30
0.0
 10
2.495018
 20
4.068997
 30
0.0
 10
2.495018
 20
3.950644
 30
0.0
 10
2.301350
 20
3.950644
 30
0.0
 10
2.301350
 20
4.068997
 30
0.0
  0
LWPOLYLINE
  5
139
100
AcDbEntity
  8
capa3
 62
7
100
AcDbPolyline
 90
5
 70
1
 10
2.312108
 20
3.864583
 30
0.0
 10
2.516534
 20
3.864583
 30
0.0
 10
2.516534
 20
3.746231
 30
0.0
 10
2.312108
 20
3.746231
 30
0.0
 10
2.312108
 20
3.864583
 30
0.0
  0
LWPOLYLINE
  5
13a
100
AcDbEntity
  8
capa3
 62
7
100
AcDbPolyline
 90
5
 70
1
 10
1.494401
 20
3.649389
 30
0.0
 10
1.666550
 20
3.649389
 30
0.0
 10
1.666550
 20
3.337369
 30
0.0
 10
1.494401
 20
3.337369
 30
0.0
 10
1.494401
 20
3.649389
 30
0.0
  0
LWPOLYLINE
  5
13b
100
AcDbEntity
  8
capa3
 62
7
100
AcDbPolyline
 90
5
 70
1
 10
1.741867
 20
3.670894
 30
0.0
 10
2.193757
 20
3.670894
 30
0.0
 10
2.193757
 20
3.326597
 30
0.0
 10
1.741867
 20
3.326597
 30
0.0
 10
1.741867
 20
3.670894
 30
0.0
  0
LWPOLYLINE
  5
13c
100
AcDbEntity
  8
capa3
 62
7
100
AcDbPolyline
 90
5
 70
1
 10
2.301350
 20
3.649389
 30
0.0
 10
2.548814
 20
3.649389
 30
0.0
 10
2.548814
 20
3.315851
 30
0.0
 10
2.301350
 20
3.315851
 30
0.0
 10
2.301350
 20
3.649389
 30
0.0
  0
ENDSEC
  0
SECTION
  2
OBJECTS
  0
DICTIONARY
  5
C
330
0
100
AcDbDictionary
  3
ACAD_GROUP
350
D
  3
ACAD_MLINESTYLE
350
17
  0
DICTIONARY
  5
D
330
C
100
AcDbDictionary
  0
DICTIONARY
  5
1A
330
C
100
AcDbDictionary
  0
DICTIONARY
  5
17
330
C
100
AcDbDictionary
  3
STANDARD
350
18
  0
DICTIONARY
  5
19
330
C
100
AcDbDictionary
  0
ENDSEC
  0
EOF
