solid OpenSCAD_Model
  facet normal -1 0 0
    outer loop
      vertex -15 20 -15
      vertex -15 18.5686 -11.6913
      vertex -15 20 -12.9802
    endloop
  endfacet
  facet normal -1 0 0
    outer loop
      vertex -15 20 -15
      vertex -15 17.3781 -10.0529
      vertex -15 18.5686 -11.6913
    endloop
  endfacet
  facet normal -1 0 0
    outer loop
      vertex -15 4 -5
      vertex -15 17.3781 -10.0529
      vertex -15 20 -15
    endloop
  endfacet
  facet normal -1 0 0
    outer loop
      vertex -15 4 -5
      vertex -15 17.3132 -9.94032
      vertex -15 17.3397 -10
    endloop
  endfacet
  facet normal -1 0 0
    outer loop
      vertex -15 16.0548 -6.04528
      vertex -15 15.9781 -5
      vertex -15 16.0548 -5
    endloop
  endfacet
  facet normal -1 0 0
    outer loop
      vertex -15 15.9781 -5
      vertex -15 15.8042 -3.76393
      vertex -15 15.9781 -4.58189
    endloop
  endfacet
  facet normal -1 0 0
    outer loop
      vertex -15 12 -1
      vertex -15 15.9781 -5
      vertex -15 16.0548 -6.04528
    endloop
  endfacet
  facet normal -1 -0 -0
    outer loop
      vertex -15 15.4641 -3
      vertex -15 15.9781 -5
      vertex -15 12 -1
    endloop
  endfacet
  facet normal -1 0 0
    outer loop
      vertex -15 15.9781 -5
      vertex -15 15.4641 -3
      vertex -15 15.8042 -3.76393
    endloop
  endfacet
  facet normal -1 0 0
    outer loop
      vertex -15 4 -5
      vertex -15 16.0548 -6.04528
      vertex -15 16.4894 -8.09017
    endloop
  endfacet
  facet normal -1 0 0
    outer loop
      vertex -15 15.4641 -3
      vertex -15 12 -1
      vertex -15 14.9726 -2.32348
    endloop
  endfacet
  facet normal -1 0 0
    outer loop
      vertex -15 14.9726 -2.32348
      vertex -15 12 -1
      vertex -15 14.3511 -1.76393
    endloop
  endfacet
  facet normal -1 0 0
    outer loop
      vertex -15 14.3511 -1.76393
      vertex -15 12 -1
      vertex -15 13.6269 -1.34582
    endloop
  endfacet
  facet normal -1 0 0
    outer loop
      vertex -15 17.3132 -9.94032
      vertex -15 4 -5
      vertex -15 16.4894 -8.09017
    endloop
  endfacet
  facet normal -1 0 0
    outer loop
      vertex -15 13.6269 -1.34582
      vertex -15 12 -1
      vertex -15 12.8316 -1.08741
    endloop
  endfacet
  facet normal -1 0 0
    outer loop
      vertex -15 17.3781 -10.0529
      vertex -15 4 -5
      vertex -15 17.3397 -10
    endloop
  endfacet
  facet normal -1 0 0
    outer loop
      vertex -15 4 5
      vertex -15 12 -1
      vertex -15 4 -5
    endloop
  endfacet
  facet normal -1 0 0
    outer loop
      vertex -15 16.0548 -6.04528
      vertex -15 4 -5
      vertex -15 12 -1
    endloop
  endfacet
  facet normal -1 0 0
    outer loop
      vertex -15 20 -15
      vertex -15 -4 -5
      vertex -15 4 -5
    endloop
  endfacet
  facet normal -1 0 0
    outer loop
      vertex -15 -4 -5
      vertex -15 -12 -1
      vertex -15 -4 5
    endloop
  endfacet
  facet normal -1 0 0
    outer loop
      vertex -15 -16.0548 -6.04528
      vertex -15 -12 -1
      vertex -15 -4 -5
    endloop
  endfacet
  facet normal -1 0 -0
    outer loop
      vertex -15 -15.9781 -5
      vertex -15 -12 -1
      vertex -15 -16.0548 -6.04528
    endloop
  endfacet
  facet normal -1 0 0
    outer loop
      vertex -15 -20 -15
      vertex -15 -4 -5
      vertex -15 20 -15
    endloop
  endfacet
  facet normal -1 0 -0
    outer loop
      vertex -15 -16.0548 -6.04528
      vertex -15 -4 -5
      vertex -15 -16.4894 -8.09017
    endloop
  endfacet
  facet normal -1 0 0
    outer loop
      vertex -15 -12.8316 -1.08741
      vertex -15 -15.9781 -5
      vertex -15 -13.6269 -1.34582
    endloop
  endfacet
  facet normal -1 0 0
    outer loop
      vertex -15 -13.6269 -1.34582
      vertex -15 -15.9781 -5
      vertex -15 -14.3511 -1.76393
    endloop
  endfacet
  facet normal -1 0 0
    outer loop
      vertex -15 -14.3511 -1.76393
      vertex -15 -15.9781 -5
      vertex -15 -14.9726 -2.32348
    endloop
  endfacet
  facet normal -1 0 0
    outer loop
      vertex -15 -15.4641 -3
      vertex -15 -15.9781 -5
      vertex -15 -15.8042 -3.76393
    endloop
  endfacet
  facet normal -1 0 0
    outer loop
      vertex -15 -14.9726 -2.32348
      vertex -15 -15.9781 -5
      vertex -15 -15.4641 -3
    endloop
  endfacet
  facet normal -1 0 0
    outer loop
      vertex -15 -12 -1
      vertex -15 -15.9781 -5
      vertex -15 -12.8316 -1.08741
    endloop
  endfacet
  facet normal -1 0 0
    outer loop
      vertex -15 -4 -5
      vertex -15 -17.3132 -9.94032
      vertex -15 -16.4894 -8.09017
    endloop
  endfacet
  facet normal -1 0 0
    outer loop
      vertex -15 -4 -5
      vertex -15 -17.3397 -10
      vertex -15 -17.3132 -9.94032
    endloop
  endfacet
  facet normal -1 0 0
    outer loop
      vertex -15 -4 -5
      vertex -15 -17.3781 -10.0529
      vertex -15 -17.3397 -10
    endloop
  endfacet
  facet normal -1 0 0
    outer loop
      vertex -15 -4 -5
      vertex -15 -20 -15
      vertex -15 -17.3781 -10.0529
    endloop
  endfacet
  facet normal -1 0 0
    outer loop
      vertex -15 -17.3781 -10.0529
      vertex -15 -20 -15
      vertex -15 -18.5686 -11.6913
    endloop
  endfacet
  facet normal -1 0 0
    outer loop
      vertex -15 -18.5686 -11.6913
      vertex -15 -20 -15
      vertex -15 -20 -12.9802
    endloop
  endfacet
  facet normal -1 0 0
    outer loop
      vertex -15 12 -1
      vertex -15 4 5
      vertex -15 12 5
    endloop
  endfacet
  facet normal -1 -0 0
    outer loop
      vertex -15 -4 5
      vertex -15 -12 -1
      vertex -15 -12 5
    endloop
  endfacet
  facet normal -1 0 0
    outer loop
      vertex -15 -15.8042 -3.76393
      vertex -15 -15.9781 -5
      vertex -15 -15.9781 -4.58189
    endloop
  endfacet
  facet normal -1 -0 0
    outer loop
      vertex -15 -15.9781 -5
      vertex -15 -16.0548 -6.04528
      vertex -15 -16.0548 -5
    endloop
  endfacet
  facet normal -0 0 1
    outer loop
      vertex -15 -4 5
      vertex 15 -12 5
      vertex 15 -4 5
    endloop
  endfacet
  facet normal 0 0 1
    outer loop
      vertex 15 -12 5
      vertex -15 -4 5
      vertex -15 -12 5
    endloop
  endfacet
  facet normal 1 0 0
    outer loop
      vertex 15 -12 -0.999999
      vertex 15 -4 5
      vertex 15 -12 5
    endloop
  endfacet
  facet normal 1 0 0
    outer loop
      vertex 15 12 5
      vertex 15 4 5
      vertex 15 12 -0.999999
    endloop
  endfacet
  facet normal 1 0 0
    outer loop
      vertex 15 15.9781 -4.58189
      vertex 15 15.8042 -3.76393
      vertex 15 15.9781 -5
    endloop
  endfacet
  facet normal 1 0 0
    outer loop
      vertex 15 16.0548 -5
      vertex 15 15.9781 -5
      vertex 15 16.0548 -6.04528
    endloop
  endfacet
  facet normal 1 0 0
    outer loop
      vertex 15 18.5686 -11.6913
      vertex 15 20 -15
      vertex 15 20 -12.9802
    endloop
  endfacet
  facet normal 1 0 0
    outer loop
      vertex 15 18.5302 -11.6385
      vertex 15 20 -15
      vertex 15 18.5686 -11.6913
    endloop
  endfacet
  facet normal 1 0 0
    outer loop
      vertex 15 17.3397 -10
      vertex 15 20 -15
      vertex 15 18.5302 -11.6385
    endloop
  endfacet
  facet normal 1 0 0
    outer loop
      vertex 15 4 -5
      vertex 15 16.516 -8.14985
      vertex 15 16.4894 -8.09017
    endloop
  endfacet
  facet normal 1 0 0
    outer loop
      vertex 15 15.4641 -3
      vertex 15 15.9781 -5
      vertex 15 15.8042 -3.76393
    endloop
  endfacet
  facet normal 1 0 0
    outer loop
      vertex 15 15.9781 -5
      vertex 15 15.4641 -3
      vertex 15 12 -0.999999
    endloop
  endfacet
  facet normal 1 0 0
    outer loop
      vertex 15 12 -0.999999
      vertex 15 15.4641 -3
      vertex 15 14.9726 -2.32348
    endloop
  endfacet
  facet normal 1 0 0
    outer loop
      vertex 15 15.9781 -5
      vertex 15 12 -0.999999
      vertex 15 16.0548 -6.04528
    endloop
  endfacet
  facet normal 1 0 0
    outer loop
      vertex 15 12 -0.999999
      vertex 15 14.9726 -2.32348
      vertex 15 14.3511 -1.76393
    endloop
  endfacet
  facet normal 1 0 0
    outer loop
      vertex 15 12 -0.999999
      vertex 15 14.3511 -1.76393
      vertex 15 13.6269 -1.34582
    endloop
  endfacet
  facet normal 1 0 0
    outer loop
      vertex 15 12 -0.999999
      vertex 15 13.6269 -1.34582
      vertex 15 12.8316 -1.08741
    endloop
  endfacet
  facet normal 1 -0 0
    outer loop
      vertex 15 4 -5
      vertex 15 16.0548 -6.04528
      vertex 15 12 -0.999999
    endloop
  endfacet
  facet normal 1 0 0
    outer loop
      vertex 15 16.0548 -6.04528
      vertex 15 4 -5
      vertex 15 16.4894 -8.09017
    endloop
  endfacet
  facet normal 1 0 0
    outer loop
      vertex 15 16.516 -8.14985
      vertex 15 4 -5
      vertex 15 17.3397 -10
    endloop
  endfacet
  facet normal 1 0 0
    outer loop
      vertex 15 4 -5
      vertex 15 12 -0.999999
      vertex 15 4 5
    endloop
  endfacet
  facet normal 1 0 0
    outer loop
      vertex 15 17.3397 -10
      vertex 15 4 -5
      vertex 15 20 -15
    endloop
  endfacet
  facet normal 1 -0 0
    outer loop
      vertex 15 -4 -5
      vertex 15 20 -15
      vertex 15 4 -5
    endloop
  endfacet
  facet normal 1 0 0
    outer loop
      vertex 15 -4 5
      vertex 15 -12 -0.999999
      vertex 15 -4 -5
    endloop
  endfacet
  facet normal 1 0 0
    outer loop
      vertex 15 -15.9781 -5
      vertex 15 -12 -0.999999
      vertex 15 -12.8316 -1.08741
    endloop
  endfacet
  facet normal 1 0 0
    outer loop
      vertex 15 -15.9781 -5
      vertex 15 -12.8316 -1.08741
      vertex 15 -13.6269 -1.34582
    endloop
  endfacet
  facet normal 1 0 0
    outer loop
      vertex 15 -12 -0.999999
      vertex 15 -16.0548 -6.04528
      vertex 15 -4 -5
    endloop
  endfacet
  facet normal 1 0 0
    outer loop
      vertex 15 -15.9781 -5
      vertex 15 -13.6269 -1.34582
      vertex 15 -14.3511 -1.76393
    endloop
  endfacet
  facet normal 1 0 0
    outer loop
      vertex 15 -15.9781 -5
      vertex 15 -14.3511 -1.76393
      vertex 15 -14.9726 -2.32348
    endloop
  endfacet
  facet normal 1 0 0
    outer loop
      vertex 15 -15.9781 -5
      vertex 15 -14.9726 -2.32348
      vertex 15 -15.4641 -3
    endloop
  endfacet
  facet normal 1 0 0
    outer loop
      vertex 15 -15.9781 -5
      vertex 15 -15.4641 -3
      vertex 15 -15.8042 -3.76393
    endloop
  endfacet
  facet normal 1 0 0
    outer loop
      vertex 15 -15.9781 -5
      vertex 15 -15.8042 -3.76393
      vertex 15 -15.9781 -4.58189
    endloop
  endfacet
  facet normal 1 0 0
    outer loop
      vertex 15 -12 -0.999999
      vertex 15 -15.9781 -5
      vertex 15 -16.0548 -6.04528
    endloop
  endfacet
  facet normal 1 0 0
    outer loop
      vertex 15 -16.0548 -6.04528
      vertex 15 -15.9781 -5
      vertex 15 -16.0548 -5
    endloop
  endfacet
  facet normal 1 0 0
    outer loop
      vertex 15 -4 -5
      vertex 15 -16.0548 -6.04528
      vertex 15 -16.4894 -8.09017
    endloop
  endfacet
  facet normal 1 0 0
    outer loop
      vertex 15 -16.516 -8.14985
      vertex 15 -4 -5
      vertex 15 -16.4894 -8.09017
    endloop
  endfacet
  facet normal 1 0 0
    outer loop
      vertex 15 -17.3397 -10
      vertex 15 -4 -5
      vertex 15 -16.516 -8.14985
    endloop
  endfacet
  facet normal 1 0 0
    outer loop
      vertex 15 -20 -15
      vertex 15 -4 -5
      vertex 15 -17.3397 -10
    endloop
  endfacet
  facet normal 1 0 0
    outer loop
      vertex 15 -20 -15
      vertex 15 -17.3397 -10
      vertex 15 -18.5302 -11.6385
    endloop
  endfacet
  facet normal 1 0 0
    outer loop
      vertex 15 -20 -15
      vertex 15 -18.5302 -11.6385
      vertex 15 -18.5686 -11.6913
    endloop
  endfacet
  facet normal 1 0 0
    outer loop
      vertex 15 -20 -15
      vertex 15 -18.5686 -11.6913
      vertex 15 -20 -12.9802
    endloop
  endfacet
  facet normal 1 0 0
    outer loop
      vertex 15 -4 -5
      vertex 15 -20 -15
      vertex 15 20 -15
    endloop
  endfacet
  facet normal -0 0 1
    outer loop
      vertex -15 4 -5
      vertex 15 -4 -5
      vertex 15 4 -5
    endloop
  endfacet
  facet normal 0 0 1
    outer loop
      vertex 15 -4 -5
      vertex -15 4 -5
      vertex -15 -4 -5
    endloop
  endfacet
  facet normal -0 0 1
    outer loop
      vertex -15 -15.9781 -5
      vertex 15 -16.0548 -5
      vertex 15 -15.9781 -5
    endloop
  endfacet
  facet normal 0 0 1
    outer loop
      vertex 15 -16.0548 -5
      vertex -15 -15.9781 -5
      vertex -15 -16.0548 -5
    endloop
  endfacet
  facet normal -0 0 1
    outer loop
      vertex -15 16.0548 -5
      vertex 15 15.9781 -5
      vertex 15 16.0548 -5
    endloop
  endfacet
  facet normal 0 0 1
    outer loop
      vertex 15 15.9781 -5
      vertex -15 16.0548 -5
      vertex -15 15.9781 -5
    endloop
  endfacet
  facet normal 0 -1 0
    outer loop
      vertex -15 -12 5
      vertex 15 -12 -0.999999
      vertex 15 -12 5
    endloop
  endfacet
  facet normal -0 -1 0
    outer loop
      vertex 15 -12 -0.999999
      vertex -15 -12 5
      vertex -15 -12 -1
    endloop
  endfacet
  facet normal 0 1 -0
    outer loop
      vertex 15 -4 -5
      vertex -15 -4 5
      vertex 15 -4 5
    endloop
  endfacet
  facet normal 0 1 0
    outer loop
      vertex -15 -4 5
      vertex 15 -4 -5
      vertex -15 -4 -5
    endloop
  endfacet
  facet normal -0 0 1
    outer loop
      vertex -15 12 5
      vertex 15 4 5
      vertex 15 12 5
    endloop
  endfacet
  facet normal 0 0 1
    outer loop
      vertex 15 4 5
      vertex -15 12 5
      vertex -15 4 5
    endloop
  endfacet
  facet normal 0 -1 0
    outer loop
      vertex -15 4 -5
      vertex 15 4 5
      vertex -15 4 5
    endloop
  endfacet
  facet normal 0 -1 -0
    outer loop
      vertex 15 4 5
      vertex -15 4 -5
      vertex 15 4 -5
    endloop
  endfacet
  facet normal 0 1 -0
    outer loop
      vertex 15 12 -0.999999
      vertex -15 12 5
      vertex 15 12 5
    endloop
  endfacet
  facet normal 0 1 0
    outer loop
      vertex -15 12 5
      vertex 15 12 -0.999999
      vertex -15 12 -1
    endloop
  endfacet
  facet normal 0 0 -1
    outer loop
      vertex -15 -20 -15
      vertex 15 20 -15
      vertex 15 -20 -15
    endloop
  endfacet
  facet normal -0 0 -1
    outer loop
      vertex 15 20 -15
      vertex -15 -20 -15
      vertex -15 20 -15
    endloop
  endfacet
  facet normal 0 -1 0
    outer loop
      vertex -15 -20 -15
      vertex 15 -20 -12.9802
      vertex -15 -20 -12.9802
    endloop
  endfacet
  facet normal 0 -1 -0
    outer loop
      vertex 15 -20 -12.9802
      vertex -15 -20 -15
      vertex 15 -20 -15
    endloop
  endfacet
  facet normal 0 1 -0
    outer loop
      vertex 15 20 -15
      vertex -15 20 -12.9802
      vertex 15 20 -12.9802
    endloop
  endfacet
  facet normal 0 1 0
    outer loop
      vertex -15 20 -12.9802
      vertex 15 20 -15
      vertex -15 20 -15
    endloop
  endfacet
  facet normal 0 1 -0
    outer loop
      vertex 15 15.9781 -5
      vertex -15 15.9781 -4.58189
      vertex 15 15.9781 -4.58189
    endloop
  endfacet
  facet normal 0 1 0
    outer loop
      vertex -15 15.9781 -4.58189
      vertex 15 15.9781 -5
      vertex -15 15.9781 -5
    endloop
  endfacet
  facet normal -0 0.5 0.866026
    outer loop
      vertex -15 14.3511 -1.76393
      vertex 15 13.6269 -1.34582
      vertex 15 14.3511 -1.76393
    endloop
  endfacet
  facet normal 0 0.5 0.866026
    outer loop
      vertex 15 13.6269 -1.34582
      vertex -15 14.3511 -1.76393
      vertex -15 13.6269 -1.34582
    endloop
  endfacet
  facet normal -1.86852e-08 0.809018 0.587784
    outer loop
      vertex -15 15.4641 -3
      vertex -15 14.9726 -2.32348
      vertex 15 15.4641 -3
    endloop
  endfacet
  facet normal -1.29298e-08 0.913545 0.406738
    outer loop
      vertex -15 15.8042 -3.76393
      vertex -15 15.4641 -3
      vertex 15 15.4641 -3
    endloop
  endfacet
  facet normal -0 0.309017 0.951057
    outer loop
      vertex -15 13.6269 -1.34582
      vertex 15 12.8316 -1.08741
      vertex 15 13.6269 -1.34582
    endloop
  endfacet
  facet normal 0 0.309017 0.951057
    outer loop
      vertex 15 12.8316 -1.08741
      vertex -15 13.6269 -1.34582
      vertex -15 12.8316 -1.08741
    endloop
  endfacet
  facet normal -3.1615e-08 0.104528 0.994522
    outer loop
      vertex -15 12.8316 -1.08741
      vertex -15 12 -1
      vertex 15 12 -0.999999
    endloop
  endfacet
  facet normal -0 0.669131 0.743145
    outer loop
      vertex -15 14.9726 -2.32348
      vertex 15 14.3511 -1.76393
      vertex 15 14.9726 -2.32348
    endloop
  endfacet
  facet normal 0 0.669131 0.743145
    outer loop
      vertex 15 14.3511 -1.76393
      vertex -15 14.9726 -2.32348
      vertex -15 14.3511 -1.76393
    endloop
  endfacet
  facet normal 0 0.809017 0.587785
    outer loop
      vertex 15 15.4641 -3
      vertex -15 14.9726 -2.32348
      vertex 15 14.9726 -2.32348
    endloop
  endfacet
  facet normal 0 0.913545 0.406737
    outer loop
      vertex 15 15.8042 -3.76393
      vertex -15 15.8042 -3.76393
      vertex 15 15.4641 -3
    endloop
  endfacet
  facet normal 0 0.978148 0.207912
    outer loop
      vertex 15 15.9781 -4.58189
      vertex -15 15.8042 -3.76393
      vertex 15 15.8042 -3.76393
    endloop
  endfacet
  facet normal 0 0.978148 0.207912
    outer loop
      vertex -15 15.8042 -3.76393
      vertex 15 15.9781 -4.58189
      vertex -15 15.9781 -4.58189
    endloop
  endfacet
  facet normal 0 0.104529 0.994522
    outer loop
      vertex 15 12.8316 -1.08741
      vertex -15 12.8316 -1.08741
      vertex 15 12 -0.999999
    endloop
  endfacet
  facet normal 0 -0.309017 0.951057
    outer loop
      vertex -15 -12.8316 -1.08741
      vertex 15 -13.6269 -1.34582
      vertex 15 -12.8316 -1.08741
    endloop
  endfacet
  facet normal 0 -0.309017 0.951057
    outer loop
      vertex 15 -13.6269 -1.34582
      vertex -15 -12.8316 -1.08741
      vertex -15 -13.6269 -1.34582
    endloop
  endfacet
  facet normal 0 -0.5 0.866026
    outer loop
      vertex -15 -13.6269 -1.34582
      vertex 15 -14.3511 -1.76393
      vertex 15 -13.6269 -1.34582
    endloop
  endfacet
  facet normal 0 -0.5 0.866026
    outer loop
      vertex 15 -14.3511 -1.76393
      vertex -15 -13.6269 -1.34582
      vertex -15 -14.3511 -1.76393
    endloop
  endfacet
  facet normal -1.29298e-08 -0.913545 0.406738
    outer loop
      vertex -15 -15.4641 -3
      vertex -15 -15.8042 -3.76393
      vertex 15 -15.4641 -3
    endloop
  endfacet
  facet normal 0 -1 0
    outer loop
      vertex -15 -15.9781 -5
      vertex 15 -15.9781 -4.58189
      vertex -15 -15.9781 -4.58189
    endloop
  endfacet
  facet normal 0 -1 -0
    outer loop
      vertex 15 -15.9781 -4.58189
      vertex -15 -15.9781 -5
      vertex 15 -15.9781 -5
    endloop
  endfacet
  facet normal -3.1615e-08 -0.104528 0.994522
    outer loop
      vertex -15 -12 -1
      vertex -15 -12.8316 -1.08741
      vertex 15 -12 -0.999999
    endloop
  endfacet
  facet normal 0 -0.104529 0.994522
    outer loop
      vertex 15 -12.8316 -1.08741
      vertex 15 -12 -0.999999
      vertex -15 -12.8316 -1.08741
    endloop
  endfacet
  facet normal 0 -0.669131 0.743145
    outer loop
      vertex -15 -14.3511 -1.76393
      vertex 15 -14.9726 -2.32348
      vertex 15 -14.3511 -1.76393
    endloop
  endfacet
  facet normal 0 -0.669131 0.743145
    outer loop
      vertex 15 -14.9726 -2.32348
      vertex -15 -14.3511 -1.76393
      vertex -15 -14.9726 -2.32348
    endloop
  endfacet
  facet normal 0 -0.809017 0.587785
    outer loop
      vertex 15 -14.9726 -2.32348
      vertex -15 -14.9726 -2.32348
      vertex 15 -15.4641 -3
    endloop
  endfacet
  facet normal 0 -0.978148 0.207912
    outer loop
      vertex -15 -15.9781 -4.58189
      vertex 15 -15.8042 -3.76393
      vertex -15 -15.8042 -3.76393
    endloop
  endfacet
  facet normal 0 -0.978148 0.207912
    outer loop
      vertex 15 -15.8042 -3.76393
      vertex -15 -15.9781 -4.58189
      vertex 15 -15.9781 -4.58189
    endloop
  endfacet
  facet normal 0 -0.913545 0.406737
    outer loop
      vertex 15 -15.4641 -3
      vertex -15 -15.8042 -3.76393
      vertex 15 -15.8042 -3.76393
    endloop
  endfacet
  facet normal -1.86852e-08 -0.809018 0.587784
    outer loop
      vertex -15 -14.9726 -2.32348
      vertex -15 -15.4641 -3
      vertex 15 -15.4641 -3
    endloop
  endfacet
  facet normal 0 -0.978148 0.207911
    outer loop
      vertex -15 -16.4894 -8.09017
      vertex 15 -16.0548 -6.04528
      vertex -15 -16.0548 -6.04528
    endloop
  endfacet
  facet normal 0 -0.978148 0.207911
    outer loop
      vertex 15 -16.0548 -6.04528
      vertex -15 -16.4894 -8.09017
      vertex 15 -16.4894 -8.09017
    endloop
  endfacet
  facet normal 0 -0.669131 0.743145
    outer loop
      vertex -15 -18.5686 -11.6913
      vertex 15 -20 -12.9802
      vertex 15 -18.5686 -11.6913
    endloop
  endfacet
  facet normal 0 -0.669131 0.743145
    outer loop
      vertex 15 -20 -12.9802
      vertex -15 -18.5686 -11.6913
      vertex -15 -20 -12.9802
    endloop
  endfacet
  facet normal -1.86853e-08 -0.809015 0.587788
    outer loop
      vertex -15 -17.3781 -10.0529
      vertex 15 -17.3397 -10
      vertex -15 -17.3397 -10
    endloop
  endfacet
  facet normal -1.24954e-08 -0.809017 0.587786
    outer loop
      vertex 15 -17.3397 -10
      vertex -15 -17.3781 -10.0529
      vertex 15 -18.5302 -11.6385
    endloop
  endfacet
  facet normal 0 -0.913539 0.406751
    outer loop
      vertex -15 -16.4894 -8.09017
      vertex 15 -16.516 -8.14985
      vertex 15 -16.4894 -8.09017
    endloop
  endfacet
  facet normal -3.22749e-08 -0.913545 0.406737
    outer loop
      vertex 15 -16.516 -8.14985
      vertex -15 -16.4894 -8.09017
      vertex -15 -17.3132 -9.94032
    endloop
  endfacet
  facet normal -4.41896e-08 -0.809017 0.587785
    outer loop
      vertex -15 -18.5686 -11.6913
      vertex 15 -18.5302 -11.6385
      vertex -15 -17.3781 -10.0529
    endloop
  endfacet
  facet normal 0 -0.809029 0.587769
    outer loop
      vertex 15 -18.5302 -11.6385
      vertex -15 -18.5686 -11.6913
      vertex 15 -18.5686 -11.6913
    endloop
  endfacet
  facet normal 1.14204e-08 -0.913546 0.406736
    outer loop
      vertex -15 -17.3132 -9.94032
      vertex 15 -17.3397 -10
      vertex 15 -16.516 -8.14985
    endloop
  endfacet
  facet normal -1.29295e-08 -0.91355 0.406726
    outer loop
      vertex 15 -17.3397 -10
      vertex -15 -17.3132 -9.94032
      vertex -15 -17.3397 -10
    endloop
  endfacet
  facet normal 0 -1 0
    outer loop
      vertex -15 -16.0548 -6.04528
      vertex 15 -16.0548 -5
      vertex -15 -16.0548 -5
    endloop
  endfacet
  facet normal 0 -1 -0
    outer loop
      vertex 15 -16.0548 -5
      vertex -15 -16.0548 -6.04528
      vertex 15 -16.0548 -6.04528
    endloop
  endfacet
  facet normal -0 0.669131 0.743145
    outer loop
      vertex -15 20 -12.9802
      vertex 15 18.5686 -11.6913
      vertex 15 20 -12.9802
    endloop
  endfacet
  facet normal 0 0.669131 0.743145
    outer loop
      vertex 15 18.5686 -11.6913
      vertex -15 20 -12.9802
      vertex -15 18.5686 -11.6913
    endloop
  endfacet
  facet normal -1.86853e-08 0.809015 0.587788
    outer loop
      vertex 15 17.3397 -10
      vertex -15 17.3781 -10.0529
      vertex -15 17.3397 -10
    endloop
  endfacet
  facet normal -1.24954e-08 0.809017 0.587786
    outer loop
      vertex -15 17.3781 -10.0529
      vertex 15 17.3397 -10
      vertex 15 18.5302 -11.6385
    endloop
  endfacet
  facet normal 0 0.978148 0.207911
    outer loop
      vertex 15 16.4894 -8.09017
      vertex -15 16.0548 -6.04528
      vertex 15 16.0548 -6.04528
    endloop
  endfacet
  facet normal 0 0.978148 0.207911
    outer loop
      vertex -15 16.0548 -6.04528
      vertex 15 16.4894 -8.09017
      vertex -15 16.4894 -8.09017
    endloop
  endfacet
  facet normal 1.14204e-08 0.913546 0.406736
    outer loop
      vertex 15 17.3397 -10
      vertex -15 17.3132 -9.94032
      vertex 15 16.516 -8.14985
    endloop
  endfacet
  facet normal -1.29295e-08 0.91355 0.406726
    outer loop
      vertex -15 17.3132 -9.94032
      vertex 15 17.3397 -10
      vertex -15 17.3397 -10
    endloop
  endfacet
  facet normal 0 0.913539 0.406751
    outer loop
      vertex 15 16.516 -8.14985
      vertex -15 16.4894 -8.09017
      vertex 15 16.4894 -8.09017
    endloop
  endfacet
  facet normal -3.22749e-08 0.913545 0.406737
    outer loop
      vertex -15 16.4894 -8.09017
      vertex 15 16.516 -8.14985
      vertex -15 17.3132 -9.94032
    endloop
  endfacet
  facet normal -0 0.809029 0.587769
    outer loop
      vertex -15 18.5686 -11.6913
      vertex 15 18.5302 -11.6385
      vertex 15 18.5686 -11.6913
    endloop
  endfacet
  facet normal -4.41896e-08 0.809017 0.587785
    outer loop
      vertex 15 18.5302 -11.6385
      vertex -15 18.5686 -11.6913
      vertex -15 17.3781 -10.0529
    endloop
  endfacet
  facet normal 0 1 -0
    outer loop
      vertex 15 16.0548 -6.04528
      vertex -15 16.0548 -5
      vertex 15 16.0548 -5
    endloop
  endfacet
  facet normal 0 1 0
    outer loop
      vertex -15 16.0548 -5
      vertex 15 16.0548 -6.04528
      vertex -15 16.0548 -6.04528
    endloop
  endfacet
endsolid OpenSCAD_Model
